<svg width="227" height="210" viewBox="0 0 227 210" fill="none" xmlns="http://www.w3.org/2000/svg">
<path d="M197.456 150.319C197.366 150.409 197.196 150.509 197.216 150.579C197.256 150.759 197.376 150.929 197.456 151.109C197.546 151.019 197.716 150.919 197.696 150.849C197.656 150.659 197.536 150.489 197.456 150.319ZM121.056 177.629C130.216 177.519 140.166 176.479 149.886 173.729C155.926 172.019 161.886 170.039 166.926 166.139C173.156 161.309 173.416 156.719 167.966 151.079C162.966 145.909 157.426 141.359 151.676 137.059C132.186 122.459 110.216 113.729 86.2962 109.819C78.3362 108.519 70.3062 107.589 62.1762 108.759C46.7762 110.989 39.4562 122.529 44.1862 137.369C46.8062 145.609 51.8962 152.089 58.5962 157.369C76.6362 171.569 97.4262 177.539 121.056 177.629ZM31.9362 53.6989C31.9262 59.8489 32.6962 65.8989 33.9962 71.8989C35.9862 81.0589 40.0162 89.3289 44.7362 97.3389C46.8462 100.919 47.1962 101.019 51.2962 99.7589C59.3262 97.2889 67.5162 96.0989 75.9562 96.8789C87.4462 97.9389 98.5362 100.709 109.366 104.529C135.186 113.629 156.426 128.879 172.036 151.599C172.476 152.239 172.926 152.899 173.486 153.429C174.836 154.709 177.056 154.999 178.576 154.099C180.456 152.989 179.636 151.419 179.176 149.949C178.866 148.959 178.506 147.979 178.126 147.009C169.996 126.339 160.106 106.559 147.876 87.9889C134.346 67.4389 118.916 48.4789 100.486 32.0789C90.8362 23.4989 80.0362 16.7789 67.5762 13.0889C54.1162 9.09892 40.9362 14.4889 36.0062 29.5289C33.4362 37.3989 31.9562 45.4189 31.9362 53.6989ZM140.346 181.169C132.226 182.339 124.166 183.869 115.946 184.319C96.8262 185.369 78.4762 182.669 61.5562 173.139C51.4362 167.439 42.6062 160.229 36.2962 150.279C33.4762 145.839 31.4762 141.069 29.9862 136.029C27.3962 127.239 29.0662 119.269 34.4162 111.989C35.6462 110.309 36.9662 108.659 38.4662 107.229C39.9762 105.779 39.9362 104.509 39.0162 102.749C35.6962 96.3989 32.4862 89.9789 29.2862 83.5689C25.5462 76.0689 22.5962 68.2989 21.3562 59.9489C19.3262 46.3089 20.8962 33.1289 26.7162 20.6089C32.8962 7.30892 44.1162 1.39893 58.1862 0.138925C64.9262 -0.461075 71.4262 0.938918 77.7362 3.24892C88.0062 7.01892 97.3162 12.4989 105.486 19.7489C139.176 49.6589 163.806 85.5389 176.946 128.919C179.066 135.909 180.846 142.979 182.276 150.149C182.636 151.939 182.966 153.739 183.856 155.369C184.696 156.899 185.716 157.619 187.656 157.069C190.876 156.159 193.406 154.529 194.596 151.329C199.986 136.929 205.686 122.619 207.796 107.239C208.156 104.609 208.056 102.059 207.226 99.5189C205.636 94.5989 205.496 89.5189 205.816 84.4189C205.876 83.5189 206.056 82.6189 206.266 81.7289C206.386 81.2189 206.716 80.7689 207.326 80.7489C207.896 80.7289 208.356 81.0389 208.546 81.5389C208.866 82.3889 209.156 83.2589 209.346 84.1489C210.616 90.0489 211.456 95.9689 209.696 101.939C209.476 102.669 209.476 103.489 209.486 104.269C209.586 113.269 207.586 121.859 204.506 130.249C202.566 135.509 200.556 140.739 198.596 145.989C198.156 147.169 197.346 148.279 197.726 149.609C198.566 150.019 199.026 149.579 199.406 149.049C207.046 138.469 214.386 127.709 219.276 115.489C220.466 112.509 221.026 109.549 220.656 106.339C220.086 101.479 220.676 96.7089 222.236 92.0689C222.486 91.3289 222.746 90.5889 223.086 89.8889C223.396 89.2489 223.956 88.9189 224.686 89.0589C225.236 89.1689 225.586 89.5889 225.746 90.0989C225.896 90.5889 225.976 91.1189 226.006 91.6289C226.316 97.2589 226.296 102.829 223.776 108.109C222.826 110.099 222.116 112.229 221.596 114.379C219.956 121.059 216.906 127.059 213.216 132.799C208.916 139.499 204.266 145.949 199.476 152.299C198.456 153.649 197.456 154.869 197.786 156.859C198.106 158.799 196.406 159.889 195.026 160.799C192.316 162.599 189.526 164.299 186.676 165.869C170.466 174.799 154.166 183.589 138.006 192.599C129.126 197.549 120.756 203.389 111.536 207.729C109.706 208.589 107.996 209.939 105.606 209.709C105.716 207.719 107.246 207.009 108.356 206.079C115.976 199.719 124.146 194.109 132.206 188.339C135.176 186.219 138.126 184.079 141.086 181.949C141.316 181.709 141.736 181.439 141.376 181.129C141.166 180.979 140.696 181.149 140.346 181.169Z" fill="#A3C717"/>
<path d="M87.0669 189.389C82.4969 190.959 77.7369 191.119 72.9769 191.189C71.5769 191.209 70.1269 190.919 68.8369 191.739C65.0469 190.679 61.0969 190.999 57.2469 190.279C46.8769 188.359 37.1869 184.789 28.4369 178.829C23.3069 175.329 19.0669 170.959 16.0369 165.509C12.9569 159.989 11.5569 154.129 13.1969 147.849C14.4969 142.869 17.4769 139.119 22.1869 135.859C22.5969 139.669 22.3369 142.889 21.4569 145.909C18.8269 154.929 21.6069 162.279 27.9069 168.689C36.0469 176.959 46.1469 181.459 57.2769 183.959C65.2869 185.759 73.4769 186.459 81.5369 187.959C83.4069 188.309 85.4369 188.089 87.0669 189.389Z" fill="#A3C717"/>
<path d="M15.3757 31.3091C15.2857 33.1591 14.4057 34.7691 13.8357 36.4391C10.5357 46.1091 7.96569 55.9591 7.93569 66.2191C7.88569 81.0791 12.3857 94.6791 20.2657 107.209C21.6557 109.419 23.1457 111.559 23.7157 114.169C23.9057 115.049 24.3757 116.019 23.3857 116.639C22.2057 117.389 21.4457 116.569 20.7957 115.699C17.7457 111.629 14.7357 107.529 12.2257 103.099C3.26569 87.3491 -0.904315 70.5691 1.42568 52.4191C2.50568 44.0191 5.95568 36.9691 13.0957 32.0491C13.5257 31.7591 13.9657 31.4791 14.4357 31.2691C14.6257 31.1791 14.9057 31.2791 15.3757 31.3091Z" fill="#A3C717"/>
<path d="M56.9265 52.4782C56.8365 41.4282 65.6765 34.3082 75.5565 36.5082C78.0065 37.0582 80.3265 37.9182 82.3565 39.3582C99.2065 51.3082 113.106 65.8082 121.466 85.0482C122.656 87.7982 123.646 90.6082 124.536 93.4682C125.166 95.4982 125.326 97.5582 125.326 99.6382C125.326 102.738 124.886 103.018 121.896 101.788C111.766 97.6282 101.446 94.0882 90.6665 92.0582C85.0365 90.9982 79.3465 90.2782 73.6165 90.1682C68.2865 90.0682 65.6365 87.7082 64.4865 82.9782C62.2765 73.8882 59.1165 65.0382 57.3965 55.8182C57.1365 54.4182 56.9965 52.9882 56.9265 52.4782Z" fill="#A3C717"/>
<path d="M91.8345 126.049C105.165 125.979 117.565 129.429 128.905 136.489C132.825 138.929 136.225 141.919 138.535 146.009C142.205 152.519 140.645 158.549 134.285 162.439C130.985 164.459 127.415 165.639 123.535 165.509C108.585 164.999 93.9945 162.719 80.1045 156.849C76.4045 155.279 73.3345 152.989 70.8445 149.879C65.3445 143.009 66.5545 134.909 73.8345 129.899C77.2545 127.549 81.1345 126.479 85.1945 126.099C87.3945 125.879 89.6245 126.049 91.8345 126.049Z" fill="#A3C717"/>
</svg>
