<svg width="65" height="65" viewBox="0 0 65 65" fill="none" xmlns="http://www.w3.org/2000/svg">
<circle cx="32.5" cy="32.5" r="32.5" fill="#603A8B"/>
<path d="M35.7939 24.1751C36.9108 24.4193 37.9372 25.0312 38.7418 25.9327C39.5464 26.8342 40.0926 27.9842 40.3105 29.2354L35.7939 24.1751ZM35.7939 19.0508C38.1143 19.3396 40.278 20.5038 41.9299 22.3522C43.5818 24.2006 44.6236 26.6233 44.8843 29.2226L35.7939 19.0508ZM43.7408 39.4457V43.289C43.7421 43.6458 43.6769 43.9989 43.5493 44.3258C43.4217 44.6527 43.2346 44.9462 43 45.1874C42.7653 45.4286 42.4883 45.6122 42.1866 45.7265C41.8849 45.8408 41.5653 45.8833 41.2481 45.8512C37.7296 45.4228 34.3498 44.0758 31.3803 41.9182C28.6175 39.9513 26.2752 37.327 24.5196 34.2317C22.5872 30.8896 21.3846 27.0845 21.0093 23.1246C20.9807 22.7704 21.0183 22.4133 21.1196 22.0762C21.221 21.7391 21.3838 21.4294 21.5979 21.1667C21.8119 20.9039 22.0725 20.694 22.3629 20.5503C22.6533 20.4066 22.9672 20.3322 23.2847 20.3319H26.715C27.27 20.3258 27.8079 20.5459 28.2287 20.9513C28.6494 21.3567 28.9242 21.9197 29.0019 22.5353C29.1467 23.7653 29.4152 24.9729 29.8023 26.1352C29.9562 26.5937 29.9895 27.0921 29.8983 27.5712C29.8071 28.0502 29.5952 28.49 29.2878 28.8383L27.8356 30.4653C29.4634 33.6726 31.8336 36.3281 34.6962 38.1518L36.1484 36.5248C36.4593 36.1804 36.8518 35.943 37.2794 35.8409C37.707 35.7387 38.1518 35.776 38.5611 35.9484C39.5985 36.3821 40.6763 36.6829 41.7741 36.8451C42.3296 36.9329 42.8368 37.2464 43.1994 37.7259C43.5621 38.2054 43.7547 38.8174 43.7408 39.4457Z" fill="white"/>
</svg>
