<?xml version="1.0"?>
<svg xmlns="http://www.w3.org/2000/svg" xmlns:xlink="http://www.w3.org/1999/xlink" xmlns:svgjs="http://svgjs.com/svgjs" version="1.1" width="512" height="512" x="0" y="0" viewBox="0 0 37.434 37.434" style="enable-background:new 0 0 512 512" xml:space="preserve" class=""><g>
<g xmlns="http://www.w3.org/2000/svg">
	<path d="M32.932,8.578H27.52V8.022c0-2.484-2.016-4.5-4.5-4.5h-8.607c-2.485,0-4.5,2.016-4.5,4.5v0.556H4.5   c-2.485,0-4.5,2.015-4.5,4.5v16.334c0,2.484,2.015,4.5,4.5,4.5h28.434c2.485,0,4.5-2.016,4.5-4.5V13.078   C37.432,10.592,35.417,8.578,32.932,8.578z M18.715,29.244c-4.688,0-8.5-3.812-8.5-8.5c0-4.687,3.812-8.5,8.5-8.5   c4.688,0,8.5,3.812,8.5,8.5C27.215,25.432,23.402,29.244,18.715,29.244z M23.215,20.744c0,2.479-2.02,4.5-4.5,4.5   c-2.48,0-4.5-2.021-4.5-4.5c0-2.48,2.02-4.5,4.5-4.5C21.195,16.244,23.215,18.264,23.215,20.744z" fill="#7e7e7e" data-original="#000000" style="" class=""/>
</g>
<g xmlns="http://www.w3.org/2000/svg">
</g>
<g xmlns="http://www.w3.org/2000/svg">
</g>
<g xmlns="http://www.w3.org/2000/svg">
</g>
<g xmlns="http://www.w3.org/2000/svg">
</g>
<g xmlns="http://www.w3.org/2000/svg">
</g>
<g xmlns="http://www.w3.org/2000/svg">
</g>
<g xmlns="http://www.w3.org/2000/svg">
</g>
<g xmlns="http://www.w3.org/2000/svg">
</g>
<g xmlns="http://www.w3.org/2000/svg">
</g>
<g xmlns="http://www.w3.org/2000/svg">
</g>
<g xmlns="http://www.w3.org/2000/svg">
</g>
<g xmlns="http://www.w3.org/2000/svg">
</g>
<g xmlns="http://www.w3.org/2000/svg">
</g>
<g xmlns="http://www.w3.org/2000/svg">
</g>
<g xmlns="http://www.w3.org/2000/svg">
</g>
</g></svg>
