<svg width="65" height="65" viewBox="0 0 65 65" fill="none" xmlns="http://www.w3.org/2000/svg">
<circle cx="32.5" cy="32.5" r="32.5" fill="#603A8B"/>
<path d="M28.915 21.3945C23.9969 21.3993 20 24.5126 20 28.3441C20 29.9882 20.7417 31.5662 22.0882 32.8182L21.4126 36.5174L24.4504 34.363C25.8016 34.9725 27.3417 35.2937 28.9102 35.2937C33.8283 35.2937 37.8252 32.1756 37.8252 28.3441C37.8252 24.5126 33.8283 21.3945 28.915 21.3945ZM28.915 34.5189C26.2882 34.5189 24.3748 33.4701 24.3748 33.4701L22.5134 34.7882L22.9291 32.53C22.9291 32.53 20.7748 30.9378 20.7748 28.3441C20.7748 24.9378 24.4268 22.1693 28.915 22.1693C33.4031 22.1693 37.0551 24.9378 37.0551 28.3441C37.0551 31.7504 33.4031 34.5189 28.915 34.5189Z" fill="white"/>
<path d="M44.0009 34.5179C44.0009 32.0849 42.4135 29.5101 38.6151 28.1211L38.5867 28.6597C38.3741 32.8124 34.1269 36.0628 28.9111 36.0628C27.6166 36.0628 26.2891 35.7935 26.2891 35.7935C27.5032 39.9132 31.9395 41.4676 35.0907 41.4676C36.6686 41.4676 38.2135 41.1416 39.5741 40.5274L43.382 42.6061L42.4277 38.4723C43.4576 37.3053 44.0009 35.9447 44.0009 34.5179ZM39.5977 39.6628C39.5977 39.6628 37.6702 40.6975 35.0907 40.6975C31.7221 40.6975 28.7127 39.1053 27.508 36.762C27.9757 36.814 28.4434 36.8376 28.9158 36.8376C34.3158 36.8376 38.7615 33.5447 39.3143 29.2455C41.7474 30.3652 43.2355 32.3494 43.2355 34.5227C43.2355 36.7904 41.5867 38.2455 41.5867 38.2455L42.2481 41.1038L39.5977 39.6628Z" fill="white"/>
<path d="M33.1577 25.2617H24.668V26.0318H33.1577V25.2617Z" fill="white"/>
<path d="M34.7006 27.957H23.1211V28.7271H34.7006V27.957Z" fill="white"/>
<path d="M29.2974 30.6602H28.5273V31.4302H29.2974V30.6602Z" fill="white"/>
<path d="M30.8365 30.6602H30.0664V31.4302H30.8365V30.6602Z" fill="white"/>
<path d="M27.7506 30.6602H26.9805V31.4302H27.7506V30.6602Z" fill="white"/>
</svg>
