<svg id="Capa_1" enable-background="new 0 0 512 512" height="512" viewBox="0 0 512 512" width="512" xmlns="http://www.w3.org/2000/svg"><g><g><g><g><path d="m141.274 336.231-30.897 30.902 34.509 34.514 30.902-30.906" fill="#ffcb7c"/></g></g><g><ellipse cx="300.984" cy="210.981" fill="#8481e2" rx="200.955" ry="200.981"/></g><g><g><g><g><g><ellipse cx="301" cy="210.999" fill="#e5ecec" rx="152.828" ry="152.678" transform="matrix(.658 -.753 .753 .658 -55.971 298.708)"/></g></g><g><g><path d="m453.698 224.59c-4.249 0-8.085-2.787-9.462-6.789-1.3-3.778-.128-8.095 2.868-10.727 3.266-2.869 8.176-3.277 11.87-.98 3.45 2.145 5.283 6.293 4.553 10.285-.856 4.687-5.055 8.211-9.829 8.211z"/></g></g></g></g><g><g><g><ellipse cx="301" cy="168.498" fill="#ffcbbe" rx="60.557" ry="60.549" transform="matrix(.002 -1 1 .002 132.031 469.234)"/></g><g><path d="m301 239.055c-38.901 0-70.549-31.651-70.549-70.557 0-38.905 31.648-70.557 70.549-70.557s70.549 31.652 70.549 70.557c.001 38.906-31.648 70.557-70.549 70.557zm0-121.114c-27.873 0-50.549 22.68-50.549 50.557s22.676 50.557 50.549 50.557 50.549-22.68 50.549-50.557c.001-27.877-22.676-50.557-50.549-50.557z"/></g></g><g><path d="m374.843 281.599v63.097c-45.814 25.371-101.87 25.423-147.684.148v-63.244c0-11.147 9.041-20.189 20.186-20.189h107.312c11.144-.001 20.186 9.041 20.186 20.188z" fill="#f5737f"/></g></g></g></g><g><g><path d="m69.454 384.371-47.364 47.37c-16.071 16.073-16.071 42.132 0 58.204 16.071 16.073 42.126 16.073 58.197 0l47.364-47.37z" fill="#ffd89e"/></g><g><g><path d="m92.529 357.777h41.127v82.308h-41.127z" fill="#9bc6ff" transform="matrix(.707 -.707 .707 .707 -248.95 196.788)"/></g><g><path d="m448.504 251.878c-5.215-1.822-10.917.932-12.736 6.146-7.105 20.36-18.506 38.486-33.883 53.872-5.322 5.322-11.02 10.196-17.042 14.584v-44.883c0-16.646-13.542-30.189-30.186-30.189h-107.313c-16.645 0-30.186 13.543-30.186 30.189v45.056c-6.065-4.408-11.799-9.305-17.146-14.653-55.629-55.636-55.582-146.208.105-201.901 26.976-26.98 62.832-41.849 100.963-41.867h.069c38.1 0 73.91 14.83 100.839 41.762 15.472 15.474 26.904 33.735 33.979 54.275 1.799 5.222 7.49 7.997 12.711 6.199 5.222-1.799 7.997-7.49 6.199-12.711-8.072-23.436-21.108-44.264-38.746-61.904-30.708-30.712-71.535-47.621-114.982-47.621h-.079c-43.47.021-84.346 16.97-115.097 47.725-63.483 63.491-63.53 166.751-.105 230.184 10.862 10.864 23.129 20.101 36.458 27.456.003.002.006.003.009.004 23.911 13.189 51.055 20.158 78.515 20.158h.159c27.511-.027 54.712-7.05 78.663-20.31.003-.002.006-.003.009-.005 13.271-7.339 25.499-16.56 36.347-27.41 17.522-17.533 30.517-38.198 38.621-61.422 1.821-5.212-.931-10.914-6.145-12.734zm-211.346 86.92v-57.2c0-5.618 4.569-10.189 10.186-10.189h107.312c5.617 0 10.186 4.571 10.186 10.189v57.064c-39.882 19.952-87.796 20.003-127.684.136z"/><path d="m300.984 0c-116.321 0-210.954 94.646-210.954 210.981 0 45.784 14.66 88.207 39.528 122.825l-19.181 19.183-4.772-4.773c-1.876-1.875-4.419-2.929-7.072-2.929-2.652 0-5.196 1.054-7.072 2.929l-29.079 29.084c-.003.003-.006.007-.009.01l-47.354 47.36c-19.943 19.946-19.943 52.4 0 72.346 9.661 9.663 22.507 14.984 36.17 14.984s26.509-5.322 36.169-14.984l47.364-47.37h.001l29.079-29.083c3.904-3.905 3.904-10.236 0-14.141l-4.774-4.774 19.187-19.189c34.607 24.854 77.009 39.504 122.77 39.504 116.321 0 210.955-94.646 210.955-210.981s-94.635-210.982-210.956-210.982zm-227.769 482.875c-5.883 5.884-13.706 9.125-22.026 9.125-8.321 0-16.144-3.241-22.027-9.125-12.147-12.149-12.147-31.915 0-44.064l40.292-40.298 22.005 22.007 22.051 22.054zm54.436-54.443-22.005-22.007-22.051-22.054 14.938-14.94 44.056 44.061zm17.235-40.928-10.18-10.181-10.189-10.19 17.548-17.55c6.322 7.241 13.129 14.048 20.371 20.369zm156.098 14.458c-105.293 0-190.955-85.674-190.955-190.981.001-105.307 85.663-190.981 190.955-190.981s190.955 85.674 190.955 190.981-85.662 190.981-190.955 190.981z"/></g></g></g></g></svg>