<svg width="430" height="338" viewBox="0 0 430 338" fill="none" xmlns="http://www.w3.org/2000/svg">
<path d="M400.398 150.911C400.308 151.001 400.138 151.101 400.158 151.171C400.198 151.351 400.318 151.521 400.398 151.701C400.488 151.611 400.658 151.511 400.638 151.441C400.598 151.251 400.478 151.081 400.398 150.911ZM323.998 178.221C333.158 178.111 343.108 177.071 352.828 174.321C358.868 172.611 364.828 170.631 369.868 166.731C376.098 161.901 376.358 157.311 370.908 151.671C365.908 146.501 360.368 141.951 354.618 137.651C335.128 123.051 313.158 114.321 289.238 110.411C281.278 109.111 273.248 108.181 265.118 109.351C249.718 111.581 242.398 123.121 247.128 137.961C249.748 146.201 254.838 152.681 261.538 157.961C279.578 172.161 300.368 178.131 323.998 178.221ZM234.878 54.2907C234.868 60.4407 235.638 66.4907 236.938 72.4907C238.928 81.6507 242.958 89.9207 247.678 97.9307C249.788 101.511 250.138 101.611 254.238 100.351C262.268 97.8807 270.458 96.6907 278.898 97.4707C290.388 98.5307 301.478 101.301 312.308 105.121C338.128 114.221 359.368 129.471 374.978 152.191C375.418 152.831 375.868 153.491 376.428 154.021C377.778 155.301 379.998 155.591 381.518 154.691C383.398 153.581 382.578 152.011 382.118 150.541C381.808 149.551 381.448 148.571 381.068 147.601C372.938 126.931 363.048 107.151 350.818 88.5807C337.288 68.0307 321.858 49.0707 303.428 32.6707C293.778 24.0907 282.978 17.3707 270.518 13.6807C257.058 9.69072 243.878 15.0807 238.948 30.1207C236.378 37.9907 234.898 46.0107 234.878 54.2907ZM343.288 181.761C335.168 182.931 327.108 184.461 318.888 184.911C299.768 185.961 281.418 183.261 264.498 173.731C254.378 168.031 245.548 160.821 239.238 150.871C236.418 146.431 234.418 141.661 232.928 136.621C230.338 127.831 232.008 119.861 237.358 112.581C238.588 110.901 239.908 109.251 241.408 107.821C242.918 106.371 242.878 105.101 241.958 103.341C238.638 96.9907 235.428 90.5707 232.228 84.1607C228.488 76.6607 225.538 68.8907 224.298 60.5407C222.268 46.9007 223.838 33.7207 229.658 21.2007C235.838 7.90072 247.058 1.99072 261.128 0.730722C267.868 0.130722 274.368 1.53071 280.678 3.84071C290.948 7.61071 300.258 13.0907 308.428 20.3407C342.118 50.2507 366.748 86.1307 379.888 129.511C382.008 136.501 383.788 143.571 385.218 150.741C385.578 152.531 385.908 154.331 386.798 155.961C387.638 157.491 388.658 158.211 390.598 157.661C393.818 156.751 396.348 155.121 397.538 151.921C402.928 137.521 408.628 123.211 410.738 107.831C411.098 105.201 410.998 102.651 410.168 100.111C408.578 95.1907 408.438 90.1107 408.758 85.0107C408.818 84.1107 408.998 83.2107 409.208 82.3207C409.328 81.8107 409.658 81.3607 410.268 81.3407C410.838 81.3207 411.298 81.6307 411.488 82.1307C411.808 82.9807 412.098 83.8507 412.288 84.7407C413.558 90.6407 414.398 96.5607 412.638 102.531C412.418 103.261 412.418 104.081 412.428 104.861C412.528 113.861 410.528 122.451 407.448 130.841C405.508 136.101 403.498 141.331 401.538 146.581C401.098 147.761 400.288 148.871 400.668 150.201C401.508 150.611 401.968 150.171 402.348 149.641C409.988 139.061 417.328 128.301 422.218 116.081C423.408 113.101 423.968 110.141 423.598 106.931C423.028 102.071 423.618 97.3007 425.178 92.6607C425.428 91.9207 425.688 91.1807 426.028 90.4807C426.338 89.8407 426.898 89.5107 427.628 89.6507C428.178 89.7607 428.528 90.1807 428.688 90.6907C428.838 91.1807 428.918 91.7107 428.948 92.2207C429.258 97.8507 429.238 103.421 426.718 108.701C425.768 110.691 425.058 112.821 424.538 114.971C422.898 121.651 419.848 127.651 416.158 133.391C411.858 140.091 407.208 146.541 402.418 152.891C401.398 154.241 400.398 155.461 400.728 157.451C401.048 159.391 399.348 160.481 397.968 161.391C395.258 163.191 392.468 164.891 389.618 166.461C373.408 175.391 357.108 184.181 340.948 193.191C332.068 198.141 323.698 203.981 314.478 208.321C312.648 209.181 310.938 210.531 308.548 210.301C308.658 208.311 310.188 207.601 311.298 206.671C318.918 200.311 327.088 194.701 335.148 188.931C338.118 186.811 341.068 184.671 344.028 182.541C344.258 182.301 344.678 182.031 344.318 181.721C344.108 181.571 343.638 181.741 343.288 181.761Z" fill="#A3C717"/>
<path d="M290.011 189.98C290.731 191.35 289.811 192.53 289.441 193.7C280.511 222.43 271.531 251.15 262.551 279.87C261.371 283.63 261.361 283.63 257.541 283.64C255.061 283.65 252.591 283.65 250.111 283.64C245.351 283.63 246.241 283.81 244.981 280.02C241.041 268.15 237.171 256.27 233.261 244.39C230.621 236.35 227.951 228.32 225.251 220.14C223.541 220.96 223.541 222.54 223.121 223.79C216.881 242.44 210.691 261.11 204.471 279.76C203.051 284.01 203.881 283.59 199.121 283.63C196.381 283.65 193.631 283.48 190.911 283.68C188.631 283.84 187.731 282.88 187.111 280.81C183.751 269.72 180.251 258.66 176.801 247.6C171.251 229.82 165.701 212.04 160.161 194.25C159.781 193.03 159.181 191.84 159.271 190.13C164.311 190.13 169.351 189.92 174.371 190.21C177.411 190.38 179.081 192.63 179.911 195.53C181.771 202.04 183.701 208.54 185.611 215.04C188.961 226.41 192.321 237.78 195.681 249.14C195.961 250.1 196.001 251.17 196.991 251.84C198.141 250.48 198.391 248.76 198.931 247.18C204.661 230.28 210.351 213.36 216.081 196.46C218.131 190.41 224.491 187.89 230.251 190.74C232.411 191.81 233.391 193.73 234.111 195.89C237.741 206.76 241.401 217.63 245.051 228.49C247.331 235.28 249.621 242.07 251.931 248.85C252.261 249.82 252.661 250.76 253.091 251.89C254.171 250.9 254.271 249.75 254.581 248.7C259.731 231.34 264.881 213.99 270.001 196.62C270.451 195.11 270.911 193.63 271.791 192.32C273.081 191.5 274.531 191.79 275.931 191.77C280.681 191.71 285.441 191.56 290.011 189.98Z" fill="#66429C"/>
<path d="M18.7689 216.95C18.7689 218.25 18.7189 219.56 18.7789 220.86C18.9089 223.57 17.6389 227.04 19.3289 228.79C21.1989 230.72 24.7489 229.4 27.5689 229.46C31.5989 229.55 35.6489 229.7 39.6089 228.56C45.6489 226.81 48.7489 222.64 48.5489 216.48C48.3489 210.16 45.5489 206.97 38.9589 205.59C32.8889 204.32 26.7389 205.19 20.6389 204.93C18.9489 204.86 18.7589 205.86 18.7689 207.18C18.7889 210.43 18.7689 213.69 18.7689 216.95ZM29.7089 268.5C29.7089 268.43 29.7089 268.37 29.7089 268.3C32.9689 268.3 36.2589 268.6 39.4789 268.23C44.6589 267.63 49.0689 265.52 50.8289 260.06C53.4589 251.9 49.5089 245.48 40.9989 243.98C34.2689 242.79 27.4689 243.65 20.6989 243.39C19.0589 243.33 18.7689 244.24 18.7689 245.6C18.7889 252.51 18.8189 259.43 18.7489 266.34C18.7289 268.11 19.5089 268.57 21.0989 268.53C23.9689 268.45 26.8389 268.5 29.7089 268.5ZM55.0489 235.15C56.4089 235.88 57.8189 236.55 59.1389 237.36C65.2889 241.08 68.5689 246.58 68.9689 253.73C69.6989 267 63.0189 276.9 50.4589 281.32C45.9889 282.9 41.3489 283.59 36.6389 283.62C25.8189 283.7 14.9989 283.66 4.1889 283.64C0.998904 283.63 0.948906 283.58 0.948906 280.4C0.938906 251.33 0.938906 222.26 0.948906 193.19C0.948906 190.09 1.0089 190.04 4.2589 190.04C14.5589 190.03 24.8489 190.03 35.1489 190.1C40.5289 190.14 45.7789 190.99 50.8289 192.92C59.1789 196.1 64.4089 201.92 65.7889 210.87C67.2189 220.16 64.5489 227.86 56.7089 233.47C56.1889 233.84 55.7089 234.28 55.2289 234.71C55.1489 234.79 55.1289 234.95 55.0489 235.15Z" fill="#66429C"/>
<path d="M92.3183 240.69C100.888 240.69 109.418 240.69 117.958 240.69C119.848 240.69 119.558 239.61 119.268 238.33C117.758 231.79 112.588 228.09 105.398 228.48C98.2083 228.88 93.1583 233.49 92.3183 240.69ZM91.6683 252.96C91.2383 263.58 98.6183 270.93 109.088 270.39C114.058 270.13 118.398 268.21 122.618 265.74C126.058 263.73 128.278 264.09 130.588 266.79C131.688 268.07 132.628 269.5 133.738 270.78C134.808 272 134.708 272.97 133.608 274.13C131.708 276.13 129.688 277.98 127.278 279.31C117.328 284.82 106.838 286.12 95.9483 282.78C88.2383 280.42 82.3483 275.55 78.8483 268.26C73.3883 256.9 72.6083 245.15 77.5383 233.43C85.9083 213.55 109.098 211.52 121.728 219C129.058 223.34 132.988 230.03 134.588 238.2C135.118 240.88 135.398 243.61 135.298 246.37C135.108 251.33 132.748 252.73 128.758 252.67C117.808 252.5 106.858 252.6 95.8983 252.63C94.4783 252.62 93.0283 252.33 91.6683 252.96Z" fill="#66429C"/>
<path d="M302.259 240.691C311.019 240.691 319.449 240.681 327.889 240.701C329.619 240.711 329.829 239.741 329.499 238.411C328.409 233.931 325.909 230.671 321.409 229.181C312.609 226.291 304.639 230.841 302.259 240.691ZM321.769 252.611C315.779 252.611 309.779 252.581 303.789 252.631C301.389 252.651 301.299 252.791 301.689 255.081C301.909 256.361 302.199 257.641 302.589 258.881C305.119 266.921 311.009 270.911 319.449 270.401C323.429 270.161 327.099 268.941 330.559 267.011C331.809 266.311 333.049 265.581 334.349 265.001C336.639 263.981 338.709 264.491 340.379 266.321C341.429 267.471 342.339 268.751 343.289 269.991C345.269 272.581 345.239 272.561 342.889 275.031C339.669 278.411 335.769 280.731 331.399 282.201C324.369 284.571 317.139 285.331 309.829 283.811C301.409 282.061 294.459 277.811 290.179 270.241C283.329 258.151 282.519 245.391 288.119 232.701C296.439 213.841 318.499 211.771 330.919 218.441C339.669 223.141 343.899 230.921 345.159 240.501C345.429 242.561 345.449 244.671 345.369 246.741C345.189 251.141 343.709 252.561 339.369 252.591C333.499 252.641 327.629 252.601 321.769 252.611Z" fill="#66429C"/>
<path d="M370.93 187.562V192.222V279.042C370.93 279.432 370.93 279.822 370.93 280.212C370.89 283.592 370.89 283.612 367.48 283.642C364.09 283.662 360.7 283.672 357.31 283.642C354.2 283.612 354.19 283.582 354.15 280.312C354.13 278.362 354.15 276.402 354.15 274.442C354.15 246.932 354.14 219.432 354.16 191.922C354.16 187.062 353.7 187.592 358.6 187.562C362.62 187.542 366.64 187.562 370.93 187.562Z" fill="#66429C"/>
<path d="M400.578 235.842C400.578 250.572 400.588 265.302 400.568 280.032C400.568 283.602 400.538 283.622 396.898 283.642C393.768 283.662 390.638 283.662 387.508 283.642C383.778 283.622 383.778 283.612 383.758 279.712C383.758 279.322 383.758 278.932 383.758 278.542V192.892C383.758 192.112 383.748 191.322 383.758 190.542C383.828 187.632 383.828 187.592 386.848 187.562C390.368 187.522 393.888 187.532 397.408 187.562C400.518 187.592 400.558 187.622 400.558 190.862C400.588 205.862 400.578 220.852 400.578 235.842Z" fill="#66429C"/>
<path d="M290.008 189.981C285.438 191.551 280.678 191.711 275.918 191.781C274.518 191.801 273.068 191.511 271.778 192.331C267.988 191.271 264.038 191.591 260.188 190.871C249.818 188.951 240.128 185.381 231.378 179.421C226.248 175.921 222.008 171.551 218.978 166.101C215.898 160.581 214.498 154.721 216.138 148.441C217.438 143.461 220.418 139.711 225.128 136.451C225.538 140.261 225.278 143.481 224.398 146.501C221.768 155.521 224.548 162.871 230.848 169.281C238.988 177.551 249.088 182.051 260.218 184.551C268.228 186.351 276.418 187.051 284.478 188.551C286.348 188.901 288.378 188.681 290.008 189.981Z" fill="#A3C717"/>
<path d="M218.317 31.9009C218.227 33.7509 217.347 35.3609 216.777 37.0309C213.477 46.7009 210.907 56.5509 210.877 66.8109C210.827 81.6709 215.327 95.2709 223.207 107.801C224.597 110.011 226.087 112.151 226.657 114.761C226.847 115.641 227.317 116.611 226.327 117.231C225.147 117.981 224.387 117.161 223.737 116.291C220.687 112.221 217.677 108.121 215.167 103.691C206.207 87.9409 202.037 71.1609 204.367 53.0109C205.447 44.6109 208.897 37.5609 216.037 32.6409C216.467 32.3509 216.907 32.0709 217.377 31.8609C217.567 31.7709 217.847 31.8709 218.317 31.9009Z" fill="#A3C717"/>
<path d="M151.641 284.621C145.881 284.341 141.561 279.571 141.761 273.731C141.961 267.781 146.881 263.321 152.841 263.691C158.461 264.031 163.031 269.181 162.631 274.741C162.221 280.451 157.281 284.891 151.641 284.621Z" fill="#66429C"/>
<path d="M282.79 319.062C282.79 322.572 282.79 326.082 282.79 329.602C282.79 330.762 282.88 331.912 284.38 332.092C293.2 333.112 300.07 329.512 300.81 320.442C301.59 310.922 296.95 305.962 287.47 306.042C286.83 306.052 286.19 306.092 285.56 306.072C283.52 306.012 282.74 307.042 282.77 309.022C282.84 312.352 282.79 315.712 282.79 319.062ZM278.47 319.542C278.47 315.062 278.55 310.592 278.43 306.122C278.37 304.022 278.84 302.842 281.19 302.642C285.83 302.262 290.45 301.982 294.99 303.282C300.36 304.822 303.76 308.312 305.11 313.762C307.89 324.932 301.79 334.122 290.41 335.622C287.58 335.992 284.67 335.712 281.8 335.832C279.4 335.932 278.32 335.072 278.42 332.502C278.59 328.172 278.47 323.852 278.47 319.542Z" fill="#A3C717"/>
<path d="M282.79 319.062C282.79 322.572 282.79 326.082 282.79 329.602C282.79 330.762 282.88 331.912 284.38 332.092C293.2 333.112 300.07 329.512 300.81 320.442C301.59 310.922 296.95 305.962 287.47 306.042C286.83 306.052 286.19 306.092 285.56 306.072C283.52 306.012 282.74 307.042 282.77 309.022C282.84 312.352 282.79 315.712 282.79 319.062ZM278.47 319.542C278.47 315.062 278.55 310.592 278.43 306.122C278.37 304.022 278.84 302.842 281.19 302.642C285.83 302.262 290.45 301.982 294.99 303.282C300.36 304.822 303.76 308.312 305.11 313.762C307.89 324.932 301.79 334.122 290.41 335.622C287.58 335.992 284.67 335.712 281.8 335.832C279.4 335.932 278.32 335.072 278.42 332.502C278.59 328.172 278.47 323.852 278.47 319.542Z" stroke="#A3C717" stroke-width="2.46" stroke-miterlimit="10"/>
<path d="M310.798 318.77C310.798 314.45 310.858 310.12 310.768 305.8C310.728 303.69 311.208 302.48 313.678 302.56C317.838 302.7 322.008 302.6 326.168 302.59C327.528 302.59 328.778 302.65 328.818 304.51C328.858 306.5 327.468 306.33 326.178 306.34C323.458 306.36 320.738 306.37 318.008 306.38C316.268 306.39 315.318 307.18 315.388 308.99C315.398 309.15 315.368 309.31 315.368 309.47C315.298 317.49 315.158 316.39 321.828 316.46C323.268 316.48 324.708 316.48 326.148 316.47C327.288 316.46 327.938 316.93 327.978 318.13C328.018 319.42 327.678 320.3 326.138 320.28C323.418 320.25 320.698 320.32 317.968 320.29C316.228 320.27 315.338 320.88 315.348 322.78C315.408 333.64 314.338 331.57 323.658 331.78C324.938 331.81 326.218 331.8 327.498 331.79C328.828 331.78 329.588 332.27 329.528 333.76C329.468 335.26 328.608 335.65 327.338 335.65C322.698 335.65 318.048 335.59 313.408 335.69C311.158 335.74 310.678 334.53 310.798 332.68C310.808 332.52 310.798 332.36 310.798 332.2C310.798 327.74 310.798 323.25 310.798 318.77Z" fill="#A3C717"/>
<path d="M310.798 318.77C310.798 314.45 310.858 310.12 310.768 305.8C310.728 303.69 311.208 302.48 313.678 302.56C317.838 302.7 322.008 302.6 326.168 302.59C327.528 302.59 328.778 302.65 328.818 304.51C328.858 306.5 327.468 306.33 326.178 306.34C323.458 306.36 320.738 306.37 318.008 306.38C316.268 306.39 315.318 307.18 315.388 308.99C315.398 309.15 315.368 309.31 315.368 309.47C315.298 317.49 315.158 316.39 321.828 316.46C323.268 316.48 324.708 316.48 326.148 316.47C327.288 316.46 327.938 316.93 327.978 318.13C328.018 319.42 327.678 320.3 326.138 320.28C323.418 320.25 320.698 320.32 317.968 320.29C316.228 320.27 315.338 320.88 315.348 322.78C315.408 333.64 314.338 331.57 323.658 331.78C324.938 331.81 326.218 331.8 327.498 331.79C328.828 331.78 329.588 332.27 329.528 333.76C329.468 335.26 328.608 335.65 327.338 335.65C322.698 335.65 318.048 335.59 313.408 335.69C311.158 335.74 310.678 334.53 310.798 332.68C310.808 332.52 310.798 332.36 310.798 332.2C310.798 327.74 310.798 323.25 310.798 318.77Z" stroke="#A3C717" stroke-width="2.46" stroke-miterlimit="10"/>
<path d="M264.06 321.16C263.39 316.82 261.49 311.42 259.5 308.48C258.59 312.96 256.32 316.87 255.8 321.31C257.96 322.01 259.89 321.62 261.79 321.7C262.59 321.73 263.4 321.73 264.06 321.16ZM273.39 335.1C269.39 335.84 269.45 335.81 268.14 332.6C267.18 330.27 267.38 327.05 265.17 325.77C262.88 324.44 259.85 325.49 257.15 325.28C255.04 325.11 253.9 325.94 253.4 328.04C252.92 330.05 252.1 331.99 251.48 333.97C250.91 335.8 249.48 335.79 248 335.68C247.02 335.6 246.58 335.06 246.81 334.08C246.96 333.46 247.18 332.86 247.38 332.25C250.36 323.46 253.38 314.69 256.31 305.89C256.97 303.91 257.63 302.49 260.19 302.54C262.47 302.58 263.2 303.74 263.81 305.56C266.91 314.81 270.08 324.04 273.22 333.27C273.42 333.86 273.67 334.45 273.39 335.1Z" fill="#A3C717"/>
<path d="M264.06 321.16C263.39 316.82 261.49 311.42 259.5 308.48C258.59 312.96 256.32 316.87 255.8 321.31C257.96 322.01 259.89 321.62 261.79 321.7C262.59 321.73 263.4 321.73 264.06 321.16ZM273.39 335.1C269.39 335.84 269.45 335.81 268.14 332.6C267.18 330.27 267.38 327.05 265.17 325.77C262.88 324.44 259.85 325.49 257.15 325.28C255.04 325.11 253.9 325.94 253.4 328.04C252.92 330.05 252.1 331.99 251.48 333.97C250.91 335.8 249.48 335.79 248 335.68C247.02 335.6 246.58 335.06 246.81 334.08C246.96 333.46 247.18 332.86 247.38 332.25C250.36 323.46 253.38 314.69 256.31 305.89C256.97 303.91 257.63 302.49 260.19 302.54C262.47 302.58 263.2 303.74 263.81 305.56C266.91 314.81 270.08 324.04 273.22 333.27C273.42 333.86 273.67 334.45 273.39 335.1Z" stroke="#A3C717" stroke-width="2.46" stroke-miterlimit="10"/>
<path d="M209.748 336.091C206.468 336.061 204.268 335.701 202.148 334.911C200.678 334.371 200.208 333.471 200.708 331.931C201.248 330.281 202.258 330.681 203.348 331.131C205.618 332.081 207.978 332.411 210.398 332.111C213.208 331.761 215.068 330.151 215.478 327.771C215.918 325.271 214.898 323.371 212.778 322.111C211.548 321.381 210.208 320.831 208.888 320.271C207.108 319.521 205.368 318.721 203.888 317.451C199.608 313.761 199.788 307.451 204.388 304.211C208.398 301.391 212.818 301.671 217.278 303.011C218.368 303.341 218.778 304.041 218.398 305.201C217.998 306.421 217.438 307.211 215.988 306.671C213.998 305.921 211.938 305.701 209.848 306.041C207.608 306.411 205.948 307.561 205.508 309.901C205.108 312.031 206.058 313.701 207.838 314.761C209.478 315.731 211.258 316.481 212.998 317.291C218.978 320.081 221.158 323.721 219.898 328.851C218.828 333.291 214.498 336.091 209.748 336.091Z" fill="#A3C717"/>
<path d="M209.748 336.091C206.468 336.061 204.268 335.701 202.148 334.911C200.678 334.371 200.208 333.471 200.708 331.931C201.248 330.281 202.258 330.681 203.348 331.131C205.618 332.081 207.978 332.411 210.398 332.111C213.208 331.761 215.068 330.151 215.478 327.771C215.918 325.271 214.898 323.371 212.778 322.111C211.548 321.381 210.208 320.831 208.888 320.271C207.108 319.521 205.368 318.721 203.888 317.451C199.608 313.761 199.788 307.451 204.388 304.211C208.398 301.391 212.818 301.671 217.278 303.011C218.368 303.341 218.778 304.041 218.398 305.201C217.998 306.421 217.438 307.211 215.988 306.671C213.998 305.921 211.938 305.701 209.848 306.041C207.608 306.411 205.948 307.561 205.508 309.901C205.108 312.031 206.058 313.701 207.838 314.761C209.478 315.731 211.258 316.481 212.998 317.291C218.978 320.081 221.158 323.721 219.898 328.851C218.828 333.291 214.498 336.091 209.748 336.091Z" stroke="#A3C717" stroke-width="2.46" stroke-miterlimit="10"/>
<path d="M149.399 316.9C150.839 316.9 152.279 316.91 153.659 316.36C156.759 315.13 158.289 312.19 157.489 309.01C156.649 305.69 152.739 303.94 147.939 304.61C144.249 305.13 145.959 307.96 145.629 309.88C145.439 310.97 145.569 312.11 145.599 313.23C145.689 316.89 145.699 316.89 149.399 316.9ZM145.589 326.32C145.589 326.8 145.589 327.28 145.589 327.76C145.599 333.85 146.469 334.53 152.609 333.29C153.879 333.03 155.099 332.71 156.169 331.95C158.799 330.12 159.729 326.91 158.519 323.88C157.089 320.32 152.209 318.14 147.439 319.29C144.189 320.07 146.099 322.96 145.619 324.88C145.489 325.33 145.589 325.84 145.589 326.32ZM155.539 317.7C159.079 319.89 161.389 321.96 161.609 325.59C161.879 329.97 159.729 333.44 155.569 334.89C152.169 336.08 148.639 335.93 145.109 335.74C143.459 335.65 142.989 334.67 142.989 333.19C143.009 323.9 143.029 314.62 142.969 305.33C142.959 303.46 143.869 302.77 145.509 302.58C148.219 302.27 150.939 302.08 153.629 302.7C160.619 304.32 162.579 310.83 157.709 316.17C157.299 316.63 156.679 316.91 155.539 317.7Z" fill="#A3C717"/>
<path d="M149.399 316.9C150.839 316.9 152.279 316.91 153.659 316.36C156.759 315.13 158.289 312.19 157.489 309.01C156.649 305.69 152.739 303.94 147.939 304.61C144.249 305.13 145.959 307.96 145.629 309.88C145.439 310.97 145.569 312.11 145.599 313.23C145.689 316.89 145.699 316.89 149.399 316.9ZM145.589 326.32C145.589 326.8 145.589 327.28 145.589 327.76C145.599 333.85 146.469 334.53 152.609 333.29C153.879 333.03 155.099 332.71 156.169 331.95C158.799 330.12 159.729 326.91 158.519 323.88C157.089 320.32 152.209 318.14 147.439 319.29C144.189 320.07 146.099 322.96 145.619 324.88C145.489 325.33 145.589 325.84 145.589 326.32ZM155.539 317.7C159.079 319.89 161.389 321.96 161.609 325.59C161.879 329.97 159.729 333.44 155.569 334.89C152.169 336.08 148.639 335.93 145.109 335.74C143.459 335.65 142.989 334.67 142.989 333.19C143.009 323.9 143.029 314.62 142.969 305.33C142.959 303.46 143.869 302.77 145.509 302.58C148.219 302.27 150.939 302.08 153.629 302.7C160.619 304.32 162.579 310.83 157.709 316.17C157.299 316.63 156.679 316.91 155.539 317.7Z" stroke="#A3C717" stroke-width="2.46" stroke-miterlimit="10"/>
<path d="M374.17 325.061C374.12 321.321 372.73 318.891 369.95 317.651C367.09 316.381 363.44 317.121 361.15 319.431C358.78 321.831 358.51 325.921 360.47 329.691C362 332.641 364.9 334.311 367.86 333.891C370.23 333.551 371.93 332.231 373.1 330.151C373.99 328.551 374.14 326.821 374.17 325.061ZM360.42 316.531C361.99 316.821 363.03 315.561 364.34 315.191C370.57 313.411 376.06 317.041 376.77 323.501C377.53 330.351 373.41 335.891 367.39 336.101C363.74 336.231 360.86 334.781 358.84 331.741C352.18 321.751 358.94 305.691 370.69 303.561C371.31 303.451 371.95 303.391 372.58 303.391C373.07 303.391 373.5 303.601 373.65 304.131C373.88 304.891 373.48 305.401 372.83 305.581C371.75 305.871 370.62 305.931 369.54 306.231C364.45 307.611 361.2 311.261 360.42 316.531Z" fill="#A3C717"/>
<path d="M374.17 325.061C374.12 321.321 372.73 318.891 369.95 317.651C367.09 316.381 363.44 317.121 361.15 319.431C358.78 321.831 358.51 325.921 360.47 329.691C362 332.641 364.9 334.311 367.86 333.891C370.23 333.551 371.93 332.231 373.1 330.151C373.99 328.551 374.14 326.821 374.17 325.061ZM360.42 316.531C361.99 316.821 363.03 315.561 364.34 315.191C370.57 313.411 376.06 317.041 376.77 323.501C377.53 330.351 373.41 335.891 367.39 336.101C363.74 336.231 360.86 334.781 358.84 331.741C352.18 321.751 358.94 305.691 370.69 303.561C371.31 303.451 371.95 303.391 372.58 303.391C373.07 303.391 373.5 303.601 373.65 304.131C373.88 304.891 373.48 305.401 372.83 305.581C371.75 305.871 370.62 305.931 369.54 306.231C364.45 307.611 361.2 311.261 360.42 316.531Z" stroke="#A3C717" stroke-width="2.46" stroke-miterlimit="10"/>
<path d="M397.929 319.68C398.019 316.11 397.549 312.64 396.059 309.37C394.979 306.99 393.159 305.45 390.519 305.4C388.039 305.36 386.199 306.86 385.229 308.99C381.999 316.06 381.859 323.26 385.139 330.35C386.109 332.45 387.879 333.95 390.419 333.93C393.149 333.91 394.869 332.29 395.959 329.98C397.489 326.72 397.999 323.25 397.929 319.68ZM380.289 319.53C380.379 315.82 380.739 312.16 382.539 308.81C384.429 305.29 387.169 303.05 391.359 303.3C395.399 303.54 397.779 306.09 398.989 309.66C401.289 316.41 401.209 323.24 398.719 329.92C397.319 333.65 394.569 335.99 390.369 336.09C386.659 336.18 383.809 334.03 382.079 329.9C380.679 326.58 380.349 323.08 380.289 319.53Z" fill="#A3C717"/>
<path d="M397.929 319.68C398.019 316.11 397.549 312.64 396.059 309.37C394.979 306.99 393.159 305.45 390.519 305.4C388.039 305.36 386.199 306.86 385.229 308.99C381.999 316.06 381.859 323.26 385.139 330.35C386.109 332.45 387.879 333.95 390.419 333.93C393.149 333.91 394.869 332.29 395.959 329.98C397.489 326.72 397.999 323.25 397.929 319.68ZM380.289 319.53C380.379 315.82 380.739 312.16 382.539 308.81C384.429 305.29 387.169 303.05 391.359 303.3C395.399 303.54 397.779 306.09 398.989 309.66C401.289 316.41 401.209 323.24 398.719 329.92C397.319 333.65 394.569 335.99 390.369 336.09C386.659 336.18 383.809 334.03 382.079 329.9C380.679 326.58 380.349 323.08 380.289 319.53Z" stroke="#A3C717" stroke-width="2.46" stroke-miterlimit="10"/>
<path d="M230.31 317.29C230.31 321.13 230.39 324.98 230.28 328.83C230.21 331.17 231.24 331.91 233.44 331.83C236.32 331.72 239.21 331.84 242.09 331.81C243.44 331.79 244.21 332.23 244.19 333.72C244.17 335.13 243.56 335.71 242.15 335.7C237.5 335.66 232.86 335.65 228.21 335.7C226.28 335.72 225.76 334.75 225.77 333.01C225.81 323.72 225.8 314.42 225.78 305.13C225.78 303.66 226.13 302.67 227.87 302.61C229.81 302.55 230.34 303.53 230.32 305.27C230.26 309.28 230.3 313.28 230.3 317.29H230.31Z" fill="#A3C717"/>
<path d="M230.31 317.29C230.31 321.13 230.39 324.98 230.28 328.83C230.21 331.17 231.24 331.91 233.44 331.83C236.32 331.72 239.21 331.84 242.09 331.81C243.44 331.79 244.21 332.23 244.19 333.72C244.17 335.13 243.56 335.71 242.15 335.7C237.5 335.66 232.86 335.65 228.21 335.7C226.28 335.72 225.76 334.75 225.77 333.01C225.81 323.72 225.8 314.42 225.78 305.13C225.78 303.66 226.13 302.67 227.87 302.61C229.81 302.55 230.34 303.53 230.32 305.27C230.26 309.28 230.3 313.28 230.3 317.29H230.31V317.29Z" stroke="#A3C717" stroke-width="2.46" stroke-miterlimit="10"/>
<path d="M345.847 318.171C346.687 318.761 347.487 319.24 348.197 319.84C353.377 324.21 352.467 332.021 346.367 334.921C342.537 336.741 338.607 336.491 334.767 334.761C334.017 334.421 333.357 333.831 333.877 332.911C334.227 332.281 334.907 332.321 335.557 332.571C337.197 333.211 338.857 333.75 340.657 333.8C345.107 333.92 348.147 331.76 348.757 327.99C349.407 323.98 346.977 320.811 342.567 319.691C340.977 319.291 339.057 320.011 337.777 318.641C338.007 317.321 338.817 317.321 339.607 317.201C340.867 317.011 342.177 316.93 343.357 316.5C346.677 315.3 348.267 312.351 347.377 309.351C346.527 306.471 343.997 305.03 340.517 305.65C339.127 305.9 337.817 306.571 336.467 307.041C335.997 307.201 335.467 307.221 335.167 306.791C334.767 306.191 334.927 305.611 335.497 305.141C338.407 302.691 344.697 302.601 347.687 304.981C350.577 307.271 351.177 311.801 348.907 314.911C348.067 316.071 346.957 317.011 345.847 318.171Z" fill="#A3C717"/>
<path d="M345.847 318.171C346.687 318.761 347.487 319.24 348.197 319.84C353.377 324.21 352.467 332.021 346.367 334.921C342.537 336.741 338.607 336.491 334.767 334.761C334.017 334.421 333.357 333.831 333.877 332.911C334.227 332.281 334.907 332.321 335.557 332.571C337.197 333.211 338.857 333.75 340.657 333.8C345.107 333.92 348.147 331.76 348.757 327.99C349.407 323.98 346.977 320.811 342.567 319.691C340.977 319.291 339.057 320.011 337.777 318.641C338.007 317.321 338.817 317.321 339.607 317.201C340.867 317.011 342.177 316.93 343.357 316.5C346.677 315.3 348.267 312.351 347.377 309.351C346.527 306.471 343.997 305.03 340.517 305.65C339.127 305.9 337.817 306.571 336.467 307.041C335.997 307.201 335.467 307.221 335.167 306.791C334.767 306.191 334.927 305.611 335.497 305.141C338.407 302.691 344.697 302.601 347.687 304.981C350.577 307.271 351.177 311.801 348.907 314.911C348.067 316.071 346.957 317.011 345.847 318.171Z" stroke="#A3C717" stroke-width="2.46" stroke-miterlimit="10"/>
<path d="M176.029 318.2C178.929 314.49 180.539 310.27 183.069 306.63C184.129 305.11 184.479 301.69 187.049 303.14C188.349 303.87 185.959 306.32 185.099 307.9C183.429 310.99 181.679 314.07 179.689 316.96C177.589 320.01 176.729 323.23 177.009 326.89C177.189 329.28 177.049 331.69 176.979 334.09C176.959 334.97 176.509 335.67 175.499 335.51C174.789 335.4 174.539 334.75 174.529 334.07C174.509 331.19 174.379 328.3 174.539 325.43C174.699 322.59 173.979 320.13 172.519 317.71C170.049 313.6 167.789 309.36 165.479 305.16C165.069 304.42 164.079 303.44 165.409 302.79C166.439 302.28 167.229 303.17 167.729 304.01C168.709 305.66 169.539 307.4 170.529 309.04C172.339 312.01 173.529 315.36 176.029 318.2Z" fill="#A3C717"/>
<path d="M176.029 318.2C178.929 314.49 180.539 310.27 183.069 306.63C184.129 305.11 184.479 301.69 187.049 303.14C188.349 303.87 185.959 306.32 185.099 307.9C183.429 310.99 181.679 314.07 179.689 316.96C177.589 320.01 176.729 323.23 177.009 326.89C177.189 329.28 177.049 331.69 176.979 334.09C176.959 334.97 176.509 335.67 175.499 335.51C174.789 335.4 174.539 334.75 174.529 334.07C174.509 331.19 174.379 328.3 174.539 325.43C174.699 322.59 173.979 320.13 172.519 317.71C170.049 313.6 167.789 309.36 165.479 305.16C165.069 304.42 164.079 303.44 165.409 302.79C166.439 302.28 167.229 303.17 167.729 304.01C168.709 305.66 169.539 307.4 170.529 309.04C172.339 312.01 173.529 315.36 176.029 318.2Z" stroke="#A3C717" stroke-width="2.46" stroke-miterlimit="10"/>
<path d="M259.868 53.07C259.778 42.02 268.618 34.9 278.498 37.1C280.948 37.65 283.268 38.51 285.298 39.95C302.148 51.9 316.048 66.4 324.408 85.64C325.598 88.39 326.588 91.2 327.478 94.06C328.108 96.09 328.268 98.15 328.268 100.23C328.268 103.33 327.828 103.61 324.838 102.38C314.708 98.22 304.388 94.68 293.608 92.65C287.978 91.59 282.288 90.87 276.558 90.76C271.228 90.66 268.578 88.3 267.428 83.57C265.218 74.48 262.058 65.63 260.338 56.41C260.078 55.01 259.938 53.58 259.868 53.07Z" fill="#A3C717"/>
<path d="M294.78 126.641C308.11 126.571 320.51 130.021 331.85 137.081C335.77 139.521 339.17 142.511 341.48 146.601C345.15 153.111 343.59 159.141 337.23 163.031C333.93 165.051 330.36 166.231 326.48 166.101C311.53 165.591 296.94 163.311 283.05 157.441C279.35 155.871 276.28 153.581 273.79 150.471C268.29 143.601 269.5 135.501 276.78 130.491C280.2 128.141 284.08 127.071 288.14 126.691C290.34 126.471 292.57 126.641 294.78 126.641Z" fill="#A3C717"/>
</svg>
