<svg id="Layer_1" enable-background="new 0 0 256 256" height="512" viewBox="0 0 256 256" width="512" xmlns="http://www.w3.org/2000/svg"><path d="m242 221.038h-228c-5.523 0-10-4.477-10-10v-150.016c0-5.523 4.477-10 10-10h228c5.523 0 10 4.477 10 10v150.016c0 5.523-4.477 10-10 10z" fill="#f4efed"/><path d="m242 51.022h-10c5.523 0 10 4.477 10 10v150.016c0 5.523-4.477 10-10 10h10c5.523 0 10-4.477 10-10v-150.016c0-5.523-4.477-10-10-10z" fill="#d6d1cf"/><path d="m14 51.022h10c-5.523 0-10 4.477-10 10v150.016c0 5.523 4.477 10 10 10h-10c-5.523 0-10-4.477-10-10v-150.016c0-5.523 4.477-10 10-10z" fill="#fff"/><path d="m128 85.03-121.204 132.933c1.819 1.892 4.371 3.075 7.204 3.075h228c2.832 0 5.384-1.183 7.204-3.075z" fill="#f4efed"/><path d="m242 223.038h-228c-3.287 0-6.357-1.31-8.646-3.688-.73-.76-.746-1.956-.036-2.734l121.204-132.934c.758-.831 2.197-.831 2.955 0l121.203 132.933c.71.779.694 1.975-.036 2.734-2.287 2.379-5.357 3.689-8.644 3.689zm-232.32-5.27c1.277.827 2.763 1.27 4.32 1.27h228c1.558 0 3.043-.442 4.319-1.269l-118.319-129.771z" fill="#690589"/><path d="m242 223.038h-228c-6.617 0-12-5.383-12-12v-150.016c0-6.617 5.383-12 12-12h228c6.617 0 12 5.383 12 12v150.016c0 6.616-5.383 12-12 12zm-228-170.016c-4.411 0-8 3.589-8 8v150.016c0 4.411 3.589 8 8 8h228c4.411 0 8-3.589 8-8v-150.016c0-4.411-3.589-8-8-8z" fill="#690589"/><path d="m7.027 53.862 120.973 113.168 120.973-113.168c-1.802-1.755-4.259-2.84-6.973-2.84h-228c-2.714 0-5.171 1.085-6.973 2.84z" fill="#f4efed"/><path d="m128 169.03c-.491 0-.981-.18-1.366-.54l-120.973-113.168c-.399-.373-.628-.894-.634-1.44s.213-1.071.604-1.453c2.256-2.197 5.228-3.407 8.368-3.407h228c3.141 0 6.112 1.21 8.368 3.407.392.381.61.906.604 1.453s-.234 1.067-.634 1.44l-120.971 113.168c-.385.36-.875.54-1.366.54zm-117.872-115.007 117.872 110.268 117.872-110.268c-1.174-.654-2.499-1.001-3.872-1.001h-228c-1.373 0-2.698.348-3.872 1.001z" fill="#690589"/><path d="m14 114.986c-1.104 0-2-.896-2-2v-12c0-1.104.896-2 2-2s2 .896 2 2v12c0 1.105-.896 2-2 2z" fill="#690589"/><path d="m117.857 34.962v50.068h-16.912l13.528 18.468 13.527 18.468 13.527-18.468 13.528-18.468h-16.913v-50.068z" fill="#ff4397"/><path d="m128 123.966c-.638 0-1.236-.304-1.613-.818l-27.055-36.937c-.445-.608-.512-1.414-.171-2.086s1.03-1.095 1.784-1.095h14.911v-48.068c0-1.104.896-2 2-2h20.286c1.104 0 2 .896 2 2v48.068h14.912c.754 0 1.443.423 1.784 1.095s.274 1.479-.171 2.086l-27.055 36.937c-.376.515-.974.818-1.612.818zm-23.11-36.936 23.11 31.552 23.11-31.552h-12.968c-1.104 0-2-.896-2-2v-48.068h-16.286v48.068c0 1.104-.896 2-2 2z" fill="#690589"/></svg>