<svg width="512" height="512" viewBox="0 0 512 512" fill="none" xmlns="http://www.w3.org/2000/svg">
<path d="M417.392 161.936H409.808C402.272 130.208 373.68 106.432 339.472 106.432C331.168 106.432 322.752 108.256 315.792 110.592C299.072 63.1038 253.76 29.0078 200.352 29.0078C132.736 29.0078 77.904 83.5518 77.904 150.848C77.904 155.088 78.128 159.28 78.544 163.392C34.112 171.04 0 209.744 0 256.064C0 307.84 42.576 350.208 94.608 350.208H417.392C469.424 350.208 512 307.84 512 256.064C512 204.304 469.424 161.936 417.392 161.936Z" fill="#7949AF" fill-opacity="0.35"/>
<path d="M256 482.992C331.915 482.992 393.456 421.451 393.456 345.536C393.456 269.621 331.915 208.08 256 208.08C180.085 208.08 118.544 269.621 118.544 345.536C118.544 421.451 180.085 482.992 256 482.992Z" fill="#7949AF"/>
<path d="M313.79 391.999L209.523 287.732L198.21 299.046L302.476 403.312L313.79 391.999Z" fill="white"/>
<path d="M313.79 299.046L302.477 287.732L198.21 391.999L209.524 403.312L313.79 299.046Z" fill="white"/>
</svg>
