<svg width="30" height="30" viewBox="0 0 30 30" fill="none" xmlns="http://www.w3.org/2000/svg">
<path d="M21.25 26.25V23.75C21.25 22.4239 20.7232 21.1521 19.7855 20.2145C18.8479 19.2768 17.5761 18.75 16.25 18.75H6.25C4.92392 18.75 3.65215 19.2768 2.71447 20.2145C1.77678 21.1521 1.25 22.4239 1.25 23.75V26.25" stroke="#818181" stroke-width="2" stroke-linecap="round" stroke-linejoin="round"/>
<path d="M11.25 13.75C14.0114 13.75 16.25 11.5114 16.25 8.75C16.25 5.98858 14.0114 3.75 11.25 3.75C8.48858 3.75 6.25 5.98858 6.25 8.75C6.25 11.5114 8.48858 13.75 11.25 13.75Z" stroke="#818181" stroke-width="2" stroke-linecap="round" stroke-linejoin="round"/>
<path d="M28.75 26.2477V23.7477C28.7492 22.6398 28.3804 21.5636 27.7017 20.688C27.023 19.8125 26.0727 19.1871 25 18.9102" stroke="#818181" stroke-width="2" stroke-linecap="round" stroke-linejoin="round"/>
<path d="M20 3.91016C21.0755 4.18553 22.0288 4.81103 22.7095 5.68804C23.3903 6.56506 23.7598 7.64369 23.7598 8.75391C23.7598 9.86412 23.3903 10.9428 22.7095 11.8198C22.0288 12.6968 21.0755 13.3223 20 13.5977" stroke="#818181" stroke-width="2" stroke-linecap="round" stroke-linejoin="round"/>
</svg>
