<?xml version="1.0" encoding="iso-8859-1"?>
<!-- Generator: Adobe Illustrator 19.0.0, SVG Export Plug-In . SVG Version: 6.00 Build 0)  -->
<svg version="1.1" id="Capa_1" xmlns="http://www.w3.org/2000/svg" xmlns:xlink="http://www.w3.org/1999/xlink" x="0px" y="0px"
	 viewBox="0 0 512 512" style="enable-background:new 0 0 512 512;" xml:space="preserve">
<circle style="fill:#802897;" cx="256" cy="256" r="256"/>
<path style="fill:#451152;" d="M512,256c0-16.108-1.504-31.863-4.349-47.146L399.228,100.445
	c-7.08-7.518-18.072-12.969-35.075-12.969c-59.736,0-48.709,56.677-48.709,56.677l0.003,0.002c0.192,2.09,0.496,5.036,0.924,8.217
	c-4.287,1.516-7.163,5.828-6.654,10.534l0.877,8.095c0.268,2.471,1.424,4.64,3.116,6.224l12.681,11.155
	c0.363,1.117,0.924,2.136,1.624,3.037c3.41,6.087,7.153,10.841,10.98,14.545l6.579,6.589v17.97H321.96
	c-0.875,0-1.739,0.045-2.596,0.113L179.181,90.159c-6.103-6.57-15.982-12.988-31.299-12.988c-20.154,0-24.934,21.528-52.498,9.161
	c0,0-0.53,12.816,6.821,24.558c-2.625,6.369-2.179,12.208-2.179,12.208l0.745,13.567c-4.521,1.429-7.592,5.899-7.063,10.783
	l0.888,8.202c0.295,2.727,1.659,5.088,3.627,6.718l12.038,10.184c0.402,1.494,1.123,2.845,2.094,3.974
	c3.408,6.043,7.141,10.775,10.958,14.478l7.255,7.267v20.04H107.36c-14.75,0-26.71,11.95-26.71,26.7v155.21l100.714,100.714
	C204.979,508.121,230.035,512,256,512C397.385,512,512,397.385,512,256z"/>
<rect x="345.57" y="210.56" style="fill:#FFC473;" width="35.21" height="44.42"/>
<rect x="363.18" y="210.56" style="fill:#FFAA20;" width="17.607" height="44.42"/>
<path style="fill:#FFDBA9;" d="M408.506,151.962c-1.892-27.858-25.65-43.669-45.325-43.669s-43.433,15.811-45.325,43.669
	c-5.091,0.954-8.704,5.712-8.138,10.943l0.877,8.095c0.595,5.492,5.574,9.498,11.066,8.903l0.946-0.102
	c11.242,29.262,29.383,36.796,40.574,38.508c11.191-1.712,29.333-9.245,40.574-38.508l0.946,0.102
	c5.492,0.595,10.471-3.412,11.066-8.903l0.877-8.095C417.21,157.674,413.597,152.916,408.506,151.962z"/>
<path style="fill:#FFC473;" d="M416.646,162.906l-0.878,8.096c-0.597,5.491-5.574,9.496-11.065,8.903l-0.949-0.103
	c-11.239,29.263-29.381,36.794-40.573,38.505V108.294c19.407,0,42.787,15.382,45.238,42.538c0.036,0.391,0.063,0.767,0.087,1.131
	C413.598,152.915,417.211,157.675,416.646,162.906z"/>
<path style="fill:#E67500;" d="M364.154,87.477c-59.736,0-48.709,56.677-48.709,56.677l0.003,0.002
	c0.518,5.625,1.839,17.432,4.229,23.396h5.985v-18.166c1.379-5.557,3.51-9.973,5.942-13.478c7.636,2.485,18.153,4.616,31.773,4.616
	c13.643,0,24.172-2.138,31.811-4.628c2.435,3.507,4.57,7.927,5.951,13.49v18.166h5.985c2.391-5.965,3.712-17.772,4.229-23.396
	l0.003-0.002C411.356,144.153,418.993,87.477,364.154,87.477z"/>
<path style="fill:#C06200;" d="M411.715,137.265c0,4.197-0.359,6.892-0.359,6.892c-0.526,5.621-1.835,17.428-4.235,23.395h-5.98
	V149.38c-1.386-5.557-3.516-9.971-5.955-13.488c-7.636,2.49-18.172,4.633-31.814,4.633h-0.192v-53.04
	c0.321-0.013,0.655-0.013,0.975-0.013C407.044,87.472,411.715,122.147,411.715,137.265z"/>
<polygon style="fill:#FFA91F;" points="363.184,155.395 363.184,186.771 372.343,186.771 372.343,164.554 392.297,164.554 
	392.297,155.395 "/>
<rect x="333.38" y="155.4" style="fill:#FFC473;" width="23.361" height="9.16"/>
<rect x="130.57" y="196.47" style="fill:#FFAA20;" width="34.626" height="43.679"/>
<rect x="147.89" y="196.47" style="fill:#FF8900;" width="17.307" height="43.679"/>
<path style="fill:#FFC473;" d="M193.808,136.359c-1.918-28.228-25.991-44.249-45.927-44.249s-44.01,16.021-45.927,44.249
	c-5.159,0.966-8.82,5.788-8.246,11.089l0.888,8.202c0.603,5.565,5.649,9.624,11.213,9.022l0.958-0.104
	c11.391,29.651,29.774,37.285,41.114,39.019c11.34-1.734,29.723-9.368,41.114-39.019l0.958,0.104
	c5.565,0.603,10.61-3.457,11.213-9.022l0.888-8.202C202.628,142.146,198.967,137.325,193.808,136.359z"/>
<path style="fill:#FFAA20;" d="M202.056,147.447l-0.889,8.204c-0.605,5.564-5.648,9.622-11.212,9.021l-0.962-0.104
	c-11.389,29.651-29.771,37.282-41.112,39.017V92.11c19.665,0,43.355,15.587,45.839,43.103c0.036,0.396,0.064,0.777,0.088,1.146
	C198.968,137.324,202.629,142.148,202.056,147.447z"/>
<path style="fill:#2A2A2C;" d="M166.557,94.901v23.434c0,0,16.801,5.413,18.883,17.422v17.659h7.83l1.666-30.32
	C194.936,123.097,196.988,96.345,166.557,94.901z"/>
<path style="fill:#3C3B41;" d="M128.404,94.901v23.434c0,0-16.801,5.413-18.883,17.422v17.659h-7.83l-1.666-30.32
	C100.025,123.097,97.973,96.345,128.404,94.901z"/>
<polygon style="fill:#FF8900;" points="172.987,148.355 147.881,148.355 147.881,177.88 156.8,177.88 156.8,156.63 172.987,156.63 
	"/>
<rect x="118.78" y="148.35" style="fill:#FFAA20;" width="21.881" height="8.275"/>
<path style="fill:#56545B;" d="M187.837,104.118c0,0-8.58-26.947-39.956-26.947c-20.153,0-24.934,21.528-52.498,9.161
	c0,0-1.651,39.642,40.839,43.361C158.903,131.677,178.098,125.534,187.837,104.118z"/>
<path style="fill:#3B3A40;" d="M187.837,104.117c-8.084,17.777-22.686,25.032-40.385,25.852V77.175
	c0.142-0.005,0.284-0.005,0.43-0.005C179.258,77.171,187.837,104.117,187.837,104.117z"/>
<path style="fill:#00EFD1;" d="M215.11,245.01v155.21H80.65V245.01c0-14.75,11.96-26.7,26.71-26.7h81.04
	C203.15,218.31,215.11,230.26,215.11,245.01z"/>
<g>
	<path style="fill:#00AD95;" d="M215.11,245.01v155.21h-67.23V218.31h40.52C203.15,218.31,215.11,230.26,215.11,245.01z"/>
	<rect x="102" y="273.7" style="fill:#00AD95;" width="12.474" height="126.52"/>
</g>
<rect x="181.28" y="273.7" style="fill:#006659;" width="12.474" height="126.52"/>
<path style="fill:#D9D9DB;" d="M436.76,262.87v137.35H289.61V262.87c0-17.87,14.48-32.35,32.35-32.35h82.45
	C422.28,230.52,436.76,245,436.76,262.87z"/>
<g>
	<path style="fill:#AEADB3;" d="M436.76,262.87v137.35h-73.58v-169.7h41.23C422.28,230.52,436.76,245,436.76,262.87z"/>
	<rect x="317.31" y="286.96" style="fill:#AEADB3;" width="12.474" height="113.26"/>
</g>
<rect x="396.59" y="286.96" style="fill:#78777F;" width="12.474" height="113.26"/>
<circle style="fill:#FFFFFF;" cx="255.72" cy="289.24" r="83.29"/>
<path style="fill:#FFF5CB;" d="M339,289.233c0,46.006-37.288,83.294-83.284,83.294V205.949C301.712,205.949,339,243.237,339,289.233
	z"/>
<polygon style="fill:#FF328E;" points="304.642,274.467 270.486,274.467 270.486,240.311 240.945,240.311 240.945,274.467 
	206.789,274.467 206.789,304.008 240.945,304.008 240.945,338.164 270.486,338.164 270.486,304.008 304.642,304.008 "/>
<polygon style="fill:#B10853;" points="304.642,274.471 304.642,304.005 270.488,304.005 270.488,338.169 255.716,338.169 
	255.716,240.307 270.488,240.307 270.488,274.471 "/>
<g>
</g>
<g>
</g>
<g>
</g>
<g>
</g>
<g>
</g>
<g>
</g>
<g>
</g>
<g>
</g>
<g>
</g>
<g>
</g>
<g>
</g>
<g>
</g>
<g>
</g>
<g>
</g>
<g>
</g>
</svg>
