<svg width="36" height="36" viewBox="0 0 36 36" fill="none" xmlns="http://www.w3.org/2000/svg">
<path d="M25.5 31.5V28.5C25.5 26.9087 24.8679 25.3826 23.7426 24.2574C22.6174 23.1321 21.0913 22.5 19.5 22.5H7.5C5.9087 22.5 4.38258 23.1321 3.25736 24.2574C2.13214 25.3826 1.5 26.9087 1.5 28.5V31.5" stroke="#818181" stroke-width="2" stroke-linecap="round" stroke-linejoin="round"/>
<path d="M13.5 16.5C16.8137 16.5 19.5 13.8137 19.5 10.5C19.5 7.18629 16.8137 4.5 13.5 4.5C10.1863 4.5 7.5 7.18629 7.5 10.5C7.5 13.8137 10.1863 16.5 13.5 16.5Z" stroke="#818181" stroke-width="2" stroke-linecap="round" stroke-linejoin="round"/>
<path d="M34.5 31.5003V28.5003C34.499 27.1709 34.0565 25.8795 33.242 24.8288C32.4276 23.7781 31.2872 23.0277 30 22.6953" stroke="#818181" stroke-width="2" stroke-linecap="round" stroke-linejoin="round"/>
<path d="M24 4.69531C25.2906 5.02576 26.4346 5.77636 27.2515 6.82878C28.0684 7.88119 28.5118 9.17556 28.5118 10.5078C28.5118 11.8401 28.0684 13.1344 27.2515 14.1868C26.4346 15.2393 25.2906 15.9899 24 16.3203" stroke="#818181" stroke-width="2" stroke-linecap="round" stroke-linejoin="round"/>
</svg>
