<svg width="32" height="32" viewBox="0 0 32 32" fill="none" xmlns="http://www.w3.org/2000/svg">
<path d="M28 15.3334C28.0046 17.0932 27.5934 18.8292 26.8 20.4C25.8592 22.2824 24.413 23.8656 22.6233 24.9724C20.8335 26.0792 18.771 26.6659 16.6667 26.6667C14.9068 26.6713 13.1708 26.2601 11.6 25.4667L4 28L6.53333 20.4C5.73991 18.8292 5.32875 17.0932 5.33333 15.3334C5.33415 13.229 5.92082 11.1665 7.02763 9.37677C8.13444 7.58704 9.71767 6.14079 11.6 5.20004C13.1708 4.40661 14.9068 3.99545 16.6667 4.00004H17.3333C20.1125 4.15336 22.7374 5.32639 24.7055 7.29452C26.6737 9.26265 27.8467 11.8876 28 14.6667V15.3334Z" stroke="white" stroke-width="2" stroke-linecap="round" stroke-linejoin="round"/>
<path d="M13.7773 11.795C13.9359 11.655 14.1086 11.522 14.2953 11.396C14.4866 11.27 14.6919 11.1603 14.9113 11.067C15.1306 10.9737 15.3686 10.9013 15.6253 10.85C15.8819 10.794 16.1596 10.766 16.4583 10.766C16.8643 10.766 17.2329 10.822 17.5643 10.934C17.9003 11.046 18.1873 11.207 18.4253 11.417C18.6633 11.6223 18.8476 11.872 18.9783 12.166C19.1089 12.46 19.1743 12.789 19.1743 13.153C19.1743 13.5077 19.1229 13.8157 19.0203 14.077C18.9176 14.3337 18.7893 14.5577 18.6353 14.749C18.4813 14.9403 18.3109 15.106 18.1243 15.246C17.9423 15.386 17.7696 15.519 17.6063 15.645C17.4429 15.7663 17.3006 15.8877 17.1793 16.009C17.0626 16.1257 16.9926 16.2587 16.9693 16.408L16.8083 17.43H15.6253L15.5063 16.289C15.4783 16.0697 15.5086 15.8783 15.5973 15.715C15.6906 15.547 15.8119 15.3953 15.9613 15.26C16.1153 15.12 16.2856 14.987 16.4723 14.861C16.6589 14.7303 16.8339 14.5903 16.9973 14.441C17.1606 14.287 17.2959 14.1167 17.4033 13.93C17.5153 13.7387 17.5713 13.5123 17.5713 13.251C17.5713 13.083 17.5386 12.9337 17.4733 12.803C17.4126 12.6677 17.3263 12.5533 17.2143 12.46C17.1023 12.362 16.9669 12.2873 16.8083 12.236C16.6543 12.1847 16.4863 12.159 16.3043 12.159C16.0383 12.159 15.8119 12.1893 15.6253 12.25C15.4433 12.306 15.2869 12.3713 15.1563 12.446C15.0303 12.516 14.9229 12.5813 14.8343 12.642C14.7456 12.698 14.6663 12.726 14.5963 12.726C14.4283 12.726 14.3069 12.656 14.2323 12.516L13.7773 11.795ZM15.1003 20.048C15.1003 19.9033 15.1259 19.7657 15.1773 19.635C15.2333 19.5043 15.3079 19.3923 15.4013 19.299C15.4946 19.2057 15.6066 19.131 15.7373 19.075C15.8679 19.019 16.0079 18.991 16.1573 18.991C16.3066 18.991 16.4443 19.019 16.5703 19.075C16.7009 19.131 16.8129 19.2057 16.9063 19.299C17.0043 19.3923 17.0813 19.5043 17.1373 19.635C17.1933 19.7657 17.2213 19.9033 17.2213 20.048C17.2213 20.1973 17.1933 20.3373 17.1373 20.468C17.0813 20.594 17.0043 20.7037 16.9063 20.797C16.8129 20.8903 16.7009 20.9627 16.5703 21.014C16.4443 21.07 16.3066 21.098 16.1573 21.098C16.0079 21.098 15.8679 21.07 15.7373 21.014C15.6066 20.9627 15.4946 20.8903 15.4013 20.797C15.3079 20.7037 15.2333 20.594 15.1773 20.468C15.1259 20.3373 15.1003 20.1973 15.1003 20.048Z" fill="white"/>
</svg>
