<svg width="31" height="30" viewBox="0 0 31 30" fill="none" xmlns="http://www.w3.org/2000/svg">
<path d="M15.5942 4.39062C12.6438 4.39062 10.2422 6.79124 10.2422 9.74263C10.2422 12.694 12.6438 15.0946 15.5942 15.0946C18.5446 15.0946 20.9462 12.694 20.9462 9.74263C20.9462 6.79124 18.5446 4.39062 15.5942 4.39062ZM15.5942 14.1216C13.1799 14.1216 11.2153 12.1569 11.2153 9.74263C11.2153 7.32838 13.1799 5.36371 15.5942 5.36371C18.0084 5.36371 19.9731 7.32838 19.9731 9.74263C19.9731 12.1569 18.0084 14.1216 15.5942 14.1216Z" fill="#828282"/>
<path d="M15.365 16.8281C9.71656 16.8281 5.12109 20.9176 5.12109 25.944C5.12109 26.1627 5.32064 26.3403 5.56649 26.3403C5.81235 26.3403 6.01189 26.1627 6.01189 25.944C6.01189 21.3543 10.2074 17.6208 15.365 17.6208C20.5226 17.6208 24.7181 21.3543 24.7181 25.944C24.7181 26.1627 24.9176 26.3403 25.1635 26.3403C25.4094 26.3403 25.6089 26.1627 25.6089 25.944C25.6089 20.9168 21.0134 16.8281 15.365 16.8281Z" fill="#828282"/>
<path d="M30.2317 15C30.2317 22.9968 23.5875 29.5 15.3659 29.5C7.14424 29.5 0.5 22.9968 0.5 15C0.5 7.00316 7.14424 0.5 15.3659 0.5C23.5875 0.5 30.2317 7.00316 30.2317 15Z" stroke="#828282"/>
</svg>
