<svg width="28" height="28" viewBox="0 0 28 28" fill="none" xmlns="http://www.w3.org/2000/svg">
<path d="M21 9.33203C21 7.47551 20.2625 5.69504 18.9497 4.38228C17.637 3.06953 15.8565 2.33203 14 2.33203C12.1435 2.33203 10.363 3.06953 9.05025 4.38228C7.7375 5.69504 7 7.47551 7 9.33203C7 17.4987 3.5 19.832 3.5 19.832H24.5C24.5 19.832 21 17.4987 21 9.33203Z" stroke="#BDBDBD" stroke-width="3" stroke-linecap="round" stroke-linejoin="round"/>
<path d="M16.0171 24.5C15.812 24.8536 15.5176 25.1471 15.1634 25.3511C14.8092 25.5551 14.4076 25.6625 13.9988 25.6625C13.59 25.6625 13.1884 25.5551 12.8342 25.3511C12.48 25.1471 12.1856 24.8536 11.9805 24.5" stroke="#BDBDBD" stroke-width="3" stroke-linecap="round" stroke-linejoin="round"/>
</svg>
