<svg width="182" height="151" viewBox="0 0 182 151" fill="none" xmlns="http://www.w3.org/2000/svg">
<path d="M90.999 150.003H169.446C176.379 150.003 181.998 144.383 181.998 137.451V107.24C181.999 104.449 181.068 101.738 179.353 99.536L141.833 51.2971C139.456 48.2412 135.801 46.4533 131.93 46.4521H50.0683C46.1967 46.4533 42.5423 48.2412 40.1651 51.2971L2.64525 99.536C0.930183 101.738 -0.000779027 104.449 4.89132e-07 107.24V137.451C4.89132e-07 144.383 5.61954 150.003 12.5516 150.003H90.999Z" fill="#894B9D"/>
<path d="M169.45 109.212L131.795 59.0059H50.2095L12.5547 109.212H52.6068C54.9844 109.212 57.1577 110.556 58.2205 112.683L64.1637 124.569C65.2265 126.696 67.3998 128.04 69.7774 128.04H112.227C114.604 128.04 116.778 126.696 117.841 124.569L123.784 112.683C124.847 110.556 127.02 109.212 129.397 109.212H169.45Z" fill="#3D324C"/>
<rect x="43.0078" y="12.4443" width="6.39837" height="35.5465" rx="3.19918" transform="rotate(-45 43.0078 12.4443)" fill="#828282"/>
<rect x="87.6445" width="6.39837" height="35.5465" rx="3.19918" fill="#828282"/>
<rect x="134.215" y="7.82227" width="6.39837" height="35.5465" rx="3.19918" transform="rotate(45 134.215 7.82227)" fill="#828282"/>
</svg>
