<svg width="35" height="35" viewBox="0 0 35 35" fill="none" xmlns="http://www.w3.org/2000/svg">
<circle cx="17.5" cy="17.5" r="17.5" fill="#C4C4C4" fill-opacity="0.7"/>
<path d="M16 24H18V22H16V24ZM17 8C11.48 8 7 12.48 7 18C7 23.52 11.48 28 17 28C22.52 28 27 23.52 27 18C27 12.48 22.52 8 17 8ZM17 26C12.59 26 9 22.41 9 18C9 13.59 12.59 10 17 10C21.41 10 25 13.59 25 18C25 22.41 21.41 26 17 26ZM17 12C14.79 12 13 13.79 13 16H15C15 14.9 15.9 14 17 14C18.1 14 19 14.9 19 16C19 18 16 17.75 16 21H18C18 18.75 21 18.5 21 16C21 13.79 19.21 12 17 12Z" fill="#5C5C5C"/>
</svg>
