<svg width="76" height="80" viewBox="0 0 76 80" fill="none" xmlns="http://www.w3.org/2000/svg">
<g filter="url(#filter0_d)">
<circle cx="40" cy="37" r="28" fill="#603A8B"/>
</g>
<path d="M52 36.3334C52.0046 38.0932 51.5934 39.8292 50.8 41.4C49.8592 43.2824 48.413 44.8656 46.6233 45.9724C44.8335 47.0792 42.771 47.6659 40.6667 47.6667C38.9068 47.6713 37.1708 47.2601 35.6 46.4667L28 49L30.5333 41.4C29.7399 39.8292 29.3287 38.0932 29.3333 36.3334C29.3341 34.229 29.9208 32.1665 31.0276 30.3768C32.1344 28.587 33.7177 27.1408 35.6 26.2C37.1708 25.4066 38.9068 24.9954 40.6667 25H41.3333C44.1125 25.1534 46.7374 26.3264 48.7055 28.2945C50.6737 30.2626 51.8467 32.8876 52 35.6667V36.3334Z" stroke="white" stroke-width="2" stroke-linecap="round" stroke-linejoin="round"/>
<path d="M37.7773 32.795C37.9359 32.655 38.1086 32.522 38.2953 32.396C38.4866 32.27 38.6919 32.1603 38.9113 32.067C39.1306 31.9737 39.3686 31.9013 39.6253 31.85C39.8819 31.794 40.1596 31.766 40.4583 31.766C40.8643 31.766 41.2329 31.822 41.5643 31.934C41.9003 32.046 42.1873 32.207 42.4253 32.417C42.6633 32.6223 42.8476 32.872 42.9783 33.166C43.1089 33.46 43.1743 33.789 43.1743 34.153C43.1743 34.5077 43.1229 34.8157 43.0203 35.077C42.9176 35.3337 42.7893 35.5577 42.6353 35.749C42.4813 35.9403 42.3109 36.106 42.1243 36.246C41.9423 36.386 41.7696 36.519 41.6063 36.645C41.4429 36.7663 41.3006 36.8877 41.1793 37.009C41.0626 37.1257 40.9926 37.2587 40.9693 37.408L40.8083 38.43H39.6253L39.5063 37.289C39.4783 37.0697 39.5086 36.8783 39.5973 36.715C39.6906 36.547 39.8119 36.3953 39.9613 36.26C40.1153 36.12 40.2856 35.987 40.4723 35.861C40.6589 35.7303 40.8339 35.5903 40.9973 35.441C41.1606 35.287 41.2959 35.1167 41.4033 34.93C41.5153 34.7387 41.5713 34.5123 41.5713 34.251C41.5713 34.083 41.5386 33.9337 41.4733 33.803C41.4126 33.6677 41.3263 33.5533 41.2143 33.46C41.1023 33.362 40.9669 33.2873 40.8083 33.236C40.6543 33.1847 40.4863 33.159 40.3043 33.159C40.0383 33.159 39.8119 33.1893 39.6253 33.25C39.4433 33.306 39.2869 33.3713 39.1563 33.446C39.0303 33.516 38.9229 33.5813 38.8343 33.642C38.7456 33.698 38.6663 33.726 38.5963 33.726C38.4283 33.726 38.3069 33.656 38.2323 33.516L37.7773 32.795ZM39.1003 41.048C39.1003 40.9033 39.1259 40.7657 39.1773 40.635C39.2333 40.5043 39.3079 40.3923 39.4013 40.299C39.4946 40.2057 39.6066 40.131 39.7373 40.075C39.8679 40.019 40.0079 39.991 40.1573 39.991C40.3066 39.991 40.4443 40.019 40.5703 40.075C40.7009 40.131 40.8129 40.2057 40.9063 40.299C41.0043 40.3923 41.0813 40.5043 41.1373 40.635C41.1933 40.7657 41.2213 40.9033 41.2213 41.048C41.2213 41.1973 41.1933 41.3373 41.1373 41.468C41.0813 41.594 41.0043 41.7037 40.9063 41.797C40.8129 41.8903 40.7009 41.9627 40.5703 42.014C40.4443 42.07 40.3066 42.098 40.1573 42.098C40.0079 42.098 39.8679 42.07 39.7373 42.014C39.6066 41.9627 39.4946 41.8903 39.4013 41.797C39.3079 41.7037 39.2333 41.594 39.1773 41.468C39.1259 41.3373 39.1003 41.1973 39.1003 41.048Z" fill="white"/>
<defs>
<filter id="filter0_d" x="0" y="0" width="80" height="80" filterUnits="userSpaceOnUse" color-interpolation-filters="sRGB">
<feFlood flood-opacity="0" result="BackgroundImageFix"/>
<feColorMatrix in="SourceAlpha" type="matrix" values="0 0 0 0 0 0 0 0 0 0 0 0 0 0 0 0 0 0 127 0"/>
<feOffset dy="3"/>
<feGaussianBlur stdDeviation="6"/>
<feColorMatrix type="matrix" values="0 0 0 0 0 0 0 0 0 0 0 0 0 0 0 0 0 0 0.25 0"/>
<feBlend mode="normal" in2="BackgroundImageFix" result="effect1_dropShadow"/>
<feBlend mode="normal" in="SourceGraphic" in2="effect1_dropShadow" result="shape"/>
</filter>
</defs>
</svg>
