<svg width="20" height="20" viewBox="0 0 20 20" fill="none" xmlns="http://www.w3.org/2000/svg">
<g clip-path="url(#clip0)">
<path d="M19.6641 8.94174L17.9745 7.40225V2.29744C17.9745 1.97264 17.7112 1.70928 17.3864 1.70928H13.3194C12.9946 1.70928 12.7312 1.9726 12.7312 2.29744V2.62455L10.6907 0.765293C10.2969 0.406348 9.70292 0.406387 9.30921 0.765254L0.335853 8.94178C0.0203847 9.22928 -0.0838731 9.67225 0.0702675 10.0703C0.224447 10.4683 0.599838 10.7254 1.02667 10.7254H2.45984V18.9176C2.45984 19.2424 2.72316 19.5058 3.048 19.5058H7.96648C8.29128 19.5058 8.55464 19.2425 8.55464 18.9176V13.9436H11.4453V18.9177C11.4453 19.2425 11.7086 19.5058 12.0335 19.5058H16.9518C17.2766 19.5058 17.5399 19.2425 17.5399 18.9177V10.7254H18.9734C19.4001 10.7254 19.7756 10.4683 19.9298 10.0703C20.0839 9.67225 19.9796 9.22928 19.6641 8.94174ZM16.9518 9.54912C16.6269 9.54912 16.3636 9.81244 16.3636 10.1373V18.3295H12.6217V13.3554C12.6217 13.0306 12.3583 12.7672 12.0335 12.7672H7.96648C7.64167 12.7672 7.37831 13.0306 7.37831 13.3554V18.3295H3.63613V10.1373C3.63613 9.81248 3.37281 9.54912 3.04796 9.54912H1.41581L10 1.72725L12.9233 4.39096C13.0955 4.54783 13.3441 4.58826 13.5571 4.49424C13.7701 4.4001 13.9076 4.18908 13.9076 3.95619V2.88561H16.7983V7.66201C16.7983 7.82752 16.868 7.98529 16.9903 8.09678L18.5842 9.54912H16.9518Z" fill="#828282"/>
</g>
<defs>
<clipPath id="clip0">
<rect width="20" height="20" fill="white"/>
</clipPath>
</defs>
</svg>
