<svg width="500" height="500" viewBox="0 0 500 500" fill="none" xmlns="http://www.w3.org/2000/svg">
<path d="M435.398 231.911C435.308 232.001 435.138 232.101 435.158 232.171C435.198 232.351 435.318 232.521 435.398 232.701C435.488 232.611 435.658 232.511 435.638 232.441C435.598 232.251 435.478 232.081 435.398 231.911ZM358.998 259.221C368.158 259.111 378.108 258.071 387.828 255.321C393.868 253.611 399.828 251.631 404.868 247.731C411.098 242.901 411.358 238.311 405.908 232.671C400.908 227.501 395.368 222.951 389.618 218.651C370.128 204.051 348.158 195.321 324.238 191.411C316.278 190.111 308.248 189.181 300.118 190.351C284.718 192.581 277.398 204.121 282.128 218.961C284.748 227.201 289.838 233.681 296.538 238.961C314.578 253.161 335.368 259.131 358.998 259.221ZM269.878 135.291C269.868 141.441 270.638 147.491 271.938 153.491C273.928 162.651 277.958 170.921 282.678 178.931C284.788 182.511 285.138 182.611 289.238 181.351C297.268 178.881 305.458 177.691 313.898 178.471C325.388 179.531 336.478 182.301 347.308 186.121C373.128 195.221 394.368 210.471 409.978 233.191C410.418 233.831 410.868 234.491 411.428 235.021C412.778 236.301 414.998 236.591 416.518 235.691C418.398 234.581 417.578 233.011 417.118 231.541C416.808 230.551 416.448 229.571 416.068 228.601C407.938 207.931 398.048 188.151 385.818 169.581C372.288 149.031 356.858 130.071 338.428 113.671C328.778 105.091 317.978 98.3707 305.518 94.6807C292.058 90.6907 278.878 96.0807 273.948 111.121C271.378 118.991 269.898 127.011 269.878 135.291ZM378.288 262.761C370.168 263.931 362.108 265.461 353.888 265.911C334.768 266.961 316.418 264.261 299.498 254.731C289.378 249.031 280.548 241.821 274.238 231.871C271.418 227.431 269.418 222.661 267.928 217.621C265.338 208.831 267.008 200.861 272.358 193.581C273.588 191.901 274.908 190.251 276.408 188.821C277.918 187.371 277.878 186.101 276.958 184.341C273.638 177.991 270.428 171.571 267.228 165.161C263.488 157.661 260.538 149.891 259.298 141.541C257.268 127.901 258.838 114.721 264.658 102.201C270.838 88.9007 282.058 82.9907 296.128 81.7307C302.868 81.1307 309.368 82.5307 315.678 84.8407C325.948 88.6107 335.258 94.0907 343.428 101.341C377.118 131.251 401.748 167.131 414.888 210.511C417.008 217.501 418.788 224.571 420.218 231.741C420.578 233.531 420.908 235.331 421.798 236.961C422.638 238.491 423.658 239.211 425.598 238.661C428.818 237.751 431.348 236.121 432.538 232.921C437.928 218.521 443.628 204.211 445.738 188.831C446.098 186.201 445.998 183.651 445.168 181.111C443.578 176.191 443.438 171.111 443.758 166.011C443.818 165.111 443.998 164.211 444.208 163.321C444.328 162.811 444.658 162.361 445.268 162.341C445.838 162.321 446.298 162.631 446.488 163.131C446.808 163.981 447.098 164.851 447.288 165.741C448.558 171.641 449.398 177.561 447.638 183.531C447.418 184.261 447.418 185.081 447.428 185.861C447.528 194.861 445.528 203.451 442.448 211.841C440.508 217.101 438.498 222.331 436.538 227.581C436.098 228.761 435.288 229.871 435.668 231.201C436.508 231.611 436.968 231.171 437.348 230.641C444.988 220.061 452.328 209.301 457.218 197.081C458.408 194.101 458.968 191.141 458.598 187.931C458.028 183.071 458.618 178.301 460.178 173.661C460.428 172.921 460.688 172.181 461.028 171.481C461.338 170.841 461.898 170.511 462.628 170.651C463.178 170.761 463.528 171.181 463.688 171.691C463.838 172.181 463.918 172.711 463.948 173.221C464.258 178.851 464.238 184.421 461.718 189.701C460.768 191.691 460.058 193.821 459.538 195.971C457.898 202.651 454.848 208.651 451.158 214.391C446.858 221.091 442.208 227.541 437.418 233.891C436.398 235.241 435.398 236.461 435.728 238.451C436.048 240.391 434.348 241.481 432.968 242.391C430.258 244.191 427.468 245.891 424.618 247.461C408.408 256.391 392.108 265.181 375.948 274.191C367.068 279.141 358.698 284.981 349.478 289.321C347.648 290.181 345.938 291.531 343.548 291.301C343.658 289.311 345.188 288.601 346.298 287.671C353.918 281.311 362.088 275.701 370.148 269.931C373.118 267.811 376.068 265.671 379.028 263.541C379.258 263.301 379.678 263.031 379.318 262.721C379.108 262.571 378.638 262.741 378.288 262.761Z" fill="#A3C717"/>
<path d="M325.011 270.98C325.731 272.35 324.811 273.53 324.441 274.7C315.511 303.43 306.531 332.15 297.551 360.87C296.371 364.63 296.361 364.63 292.541 364.64C290.061 364.65 287.591 364.65 285.111 364.64C280.351 364.63 281.241 364.81 279.981 361.02C276.041 349.15 272.171 337.27 268.261 325.39C265.621 317.35 262.951 309.32 260.251 301.14C258.541 301.96 258.541 303.54 258.121 304.79C251.881 323.44 245.691 342.11 239.471 360.76C238.051 365.01 238.881 364.59 234.121 364.63C231.381 364.65 228.631 364.48 225.911 364.68C223.631 364.84 222.731 363.88 222.111 361.81C218.751 350.72 215.251 339.66 211.801 328.6C206.251 310.82 200.701 293.04 195.161 275.25C194.781 274.03 194.181 272.84 194.271 271.13C199.311 271.13 204.351 270.92 209.371 271.21C212.411 271.38 214.081 273.63 214.911 276.53C216.771 283.04 218.701 289.54 220.611 296.04C223.961 307.41 227.321 318.78 230.681 330.14C230.961 331.1 231.001 332.17 231.991 332.84C233.141 331.48 233.391 329.76 233.931 328.18C239.661 311.28 245.351 294.36 251.081 277.46C253.131 271.41 259.491 268.89 265.251 271.74C267.411 272.81 268.391 274.73 269.111 276.89C272.741 287.76 276.401 298.63 280.051 309.49C282.331 316.28 284.621 323.07 286.931 329.85C287.261 330.82 287.661 331.76 288.091 332.89C289.171 331.9 289.271 330.75 289.581 329.7C294.731 312.34 299.881 294.99 305.001 277.62C305.451 276.11 305.911 274.63 306.791 273.32C308.081 272.5 309.531 272.79 310.931 272.77C315.681 272.71 320.441 272.56 325.011 270.98Z" fill="#66429C"/>
<path d="M53.7689 297.95C53.7689 299.25 53.7189 300.56 53.7789 301.86C53.9089 304.57 52.6389 308.04 54.3289 309.79C56.1989 311.72 59.7489 310.4 62.5689 310.46C66.5989 310.55 70.6489 310.7 74.6089 309.56C80.6489 307.81 83.7489 303.64 83.5489 297.48C83.3489 291.16 80.5489 287.97 73.9589 286.59C67.8889 285.32 61.7389 286.19 55.6389 285.93C53.9489 285.86 53.7589 286.86 53.7689 288.18C53.7889 291.43 53.7689 294.69 53.7689 297.95ZM64.7089 349.5C64.7089 349.43 64.7089 349.37 64.7089 349.3C67.9689 349.3 71.2589 349.6 74.4789 349.23C79.6589 348.63 84.0689 346.52 85.8289 341.06C88.4589 332.9 84.5089 326.48 75.9989 324.98C69.2689 323.79 62.4689 324.65 55.6989 324.39C54.0589 324.33 53.7689 325.24 53.7689 326.6C53.7889 333.51 53.8189 340.43 53.7489 347.34C53.7289 349.11 54.5089 349.57 56.0989 349.53C58.9689 349.45 61.8389 349.5 64.7089 349.5ZM90.0489 316.15C91.4089 316.88 92.8189 317.55 94.1389 318.36C100.289 322.08 103.569 327.58 103.969 334.73C104.699 348 98.0189 357.9 85.4589 362.32C80.9889 363.9 76.3489 364.59 71.6389 364.62C60.8189 364.7 49.9989 364.66 39.1889 364.64C35.9989 364.63 35.9489 364.58 35.9489 361.4C35.9389 332.33 35.9389 303.26 35.9489 274.19C35.9489 271.09 36.0089 271.04 39.2589 271.04C49.5589 271.03 59.8489 271.03 70.1489 271.1C75.5289 271.14 80.7789 271.99 85.8289 273.92C94.1789 277.1 99.4089 282.92 100.789 291.87C102.219 301.16 99.5489 308.86 91.7089 314.47C91.1889 314.84 90.7089 315.28 90.2289 315.71C90.1489 315.79 90.1289 315.95 90.0489 316.15Z" fill="#66429C"/>
<path d="M127.318 321.69C135.888 321.69 144.418 321.69 152.958 321.69C154.848 321.69 154.558 320.61 154.268 319.33C152.758 312.79 147.588 309.09 140.398 309.48C133.208 309.88 128.158 314.49 127.318 321.69ZM126.668 333.96C126.238 344.58 133.618 351.93 144.088 351.39C149.058 351.13 153.398 349.21 157.618 346.74C161.058 344.73 163.278 345.09 165.588 347.79C166.688 349.07 167.628 350.5 168.738 351.78C169.808 353 169.708 353.97 168.608 355.13C166.708 357.13 164.688 358.98 162.278 360.31C152.328 365.82 141.838 367.12 130.948 363.78C123.238 361.42 117.348 356.55 113.848 349.26C108.388 337.9 107.608 326.15 112.538 314.43C120.908 294.55 144.098 292.52 156.728 300C164.058 304.34 167.988 311.03 169.588 319.2C170.118 321.88 170.398 324.61 170.298 327.37C170.108 332.33 167.748 333.73 163.758 333.67C152.808 333.5 141.858 333.6 130.898 333.63C129.478 333.62 128.028 333.33 126.668 333.96Z" fill="#66429C"/>
<path d="M337.259 321.691C346.019 321.691 354.449 321.681 362.889 321.701C364.619 321.711 364.829 320.741 364.499 319.411C363.409 314.931 360.909 311.671 356.409 310.181C347.609 307.291 339.639 311.841 337.259 321.691ZM356.769 333.611C350.779 333.611 344.779 333.581 338.789 333.631C336.389 333.651 336.299 333.791 336.689 336.081C336.909 337.361 337.199 338.641 337.589 339.881C340.119 347.921 346.009 351.911 354.449 351.401C358.429 351.161 362.099 349.941 365.559 348.011C366.809 347.311 368.049 346.581 369.349 346.001C371.639 344.981 373.709 345.491 375.379 347.321C376.429 348.471 377.339 349.751 378.289 350.991C380.269 353.581 380.239 353.561 377.889 356.031C374.669 359.411 370.769 361.731 366.399 363.201C359.369 365.571 352.139 366.331 344.829 364.811C336.409 363.061 329.459 358.811 325.179 351.241C318.329 339.151 317.519 326.391 323.119 313.701C331.439 294.841 353.499 292.771 365.919 299.441C374.669 304.141 378.899 311.921 380.159 321.501C380.429 323.561 380.449 325.671 380.369 327.741C380.189 332.141 378.709 333.561 374.369 333.591C368.499 333.641 362.629 333.601 356.769 333.611Z" fill="#66429C"/>
<path d="M405.93 268.562V273.222V360.042C405.93 360.432 405.93 360.822 405.93 361.212C405.89 364.592 405.89 364.612 402.48 364.642C399.09 364.662 395.7 364.672 392.31 364.642C389.2 364.612 389.19 364.582 389.15 361.312C389.13 359.362 389.15 357.402 389.15 355.442C389.15 327.932 389.14 300.432 389.16 272.922C389.16 268.062 388.7 268.592 393.6 268.562C397.62 268.542 401.64 268.562 405.93 268.562Z" fill="#66429C"/>
<path d="M435.578 316.842C435.578 331.572 435.588 346.302 435.568 361.032C435.568 364.602 435.538 364.622 431.898 364.642C428.768 364.662 425.638 364.662 422.508 364.642C418.778 364.622 418.778 364.612 418.758 360.712C418.758 360.322 418.758 359.932 418.758 359.542V273.892C418.758 273.112 418.748 272.322 418.758 271.542C418.828 268.632 418.828 268.592 421.848 268.562C425.368 268.522 428.888 268.532 432.408 268.562C435.518 268.592 435.558 268.622 435.558 271.862C435.588 286.862 435.578 301.852 435.578 316.842Z" fill="#66429C"/>
<path d="M325.008 270.981C320.438 272.551 315.678 272.711 310.918 272.781C309.518 272.801 308.068 272.511 306.778 273.331C302.988 272.271 299.038 272.591 295.188 271.871C284.818 269.951 275.128 266.381 266.378 260.421C261.248 256.921 257.008 252.551 253.978 247.101C250.898 241.581 249.498 235.721 251.138 229.441C252.438 224.461 255.418 220.711 260.128 217.451C260.538 221.261 260.278 224.481 259.398 227.501C256.768 236.521 259.548 243.871 265.848 250.281C273.988 258.551 284.088 263.051 295.218 265.551C303.228 267.351 311.418 268.051 319.478 269.551C321.348 269.901 323.378 269.681 325.008 270.981Z" fill="#A3C717"/>
<path d="M253.317 112.901C253.227 114.751 252.347 116.361 251.777 118.031C248.477 127.701 245.907 137.551 245.877 147.811C245.827 162.671 250.327 176.271 258.207 188.801C259.597 191.011 261.087 193.151 261.657 195.761C261.847 196.641 262.317 197.611 261.327 198.231C260.147 198.981 259.387 198.161 258.737 197.291C255.687 193.221 252.677 189.121 250.167 184.691C241.207 168.941 237.037 152.161 239.367 134.011C240.447 125.611 243.897 118.561 251.037 113.641C251.467 113.351 251.907 113.071 252.377 112.861C252.567 112.771 252.847 112.871 253.317 112.901Z" fill="#A3C717"/>
<path d="M186.641 365.621C180.881 365.341 176.561 360.571 176.761 354.731C176.961 348.781 181.881 344.321 187.841 344.691C193.461 345.031 198.031 350.181 197.631 355.741C197.221 361.451 192.281 365.891 186.641 365.621Z" fill="#66429C"/>
<path d="M317.79 400.062C317.79 403.572 317.79 407.082 317.79 410.602C317.79 411.762 317.88 412.912 319.38 413.092C328.2 414.112 335.07 410.512 335.81 401.442C336.59 391.922 331.95 386.962 322.47 387.042C321.83 387.052 321.19 387.092 320.56 387.072C318.52 387.012 317.74 388.042 317.77 390.022C317.84 393.352 317.79 396.712 317.79 400.062ZM313.47 400.542C313.47 396.062 313.55 391.592 313.43 387.122C313.37 385.022 313.84 383.842 316.19 383.642C320.83 383.262 325.45 382.982 329.99 384.282C335.36 385.822 338.76 389.312 340.11 394.762C342.89 405.932 336.79 415.122 325.41 416.622C322.58 416.992 319.67 416.712 316.8 416.832C314.4 416.932 313.32 416.072 313.42 413.502C313.59 409.172 313.47 404.852 313.47 400.542Z" fill="#A3C717"/>
<path d="M317.79 400.062C317.79 403.572 317.79 407.082 317.79 410.602C317.79 411.762 317.88 412.912 319.38 413.092C328.2 414.112 335.07 410.512 335.81 401.442C336.59 391.922 331.95 386.962 322.47 387.042C321.83 387.052 321.19 387.092 320.56 387.072C318.52 387.012 317.74 388.042 317.77 390.022C317.84 393.352 317.79 396.712 317.79 400.062ZM313.47 400.542C313.47 396.062 313.55 391.592 313.43 387.122C313.37 385.022 313.84 383.842 316.19 383.642C320.83 383.262 325.45 382.982 329.99 384.282C335.36 385.822 338.76 389.312 340.11 394.762C342.89 405.932 336.79 415.122 325.41 416.622C322.58 416.992 319.67 416.712 316.8 416.832C314.4 416.932 313.32 416.072 313.42 413.502C313.59 409.172 313.47 404.852 313.47 400.542Z" stroke="#A3C717" stroke-width="2.46" stroke-miterlimit="10"/>
<path d="M345.798 399.77C345.798 395.45 345.858 391.12 345.768 386.8C345.728 384.69 346.208 383.48 348.678 383.56C352.838 383.7 357.008 383.6 361.168 383.59C362.528 383.59 363.778 383.65 363.818 385.51C363.858 387.5 362.468 387.33 361.178 387.34C358.458 387.36 355.738 387.37 353.008 387.38C351.268 387.39 350.318 388.18 350.388 389.99C350.398 390.15 350.368 390.31 350.368 390.47C350.298 398.49 350.158 397.39 356.828 397.46C358.268 397.48 359.708 397.48 361.148 397.47C362.288 397.46 362.938 397.93 362.978 399.13C363.018 400.42 362.678 401.3 361.138 401.28C358.418 401.25 355.698 401.32 352.968 401.29C351.228 401.27 350.338 401.88 350.348 403.78C350.408 414.64 349.338 412.57 358.658 412.78C359.938 412.81 361.218 412.8 362.498 412.79C363.828 412.78 364.588 413.27 364.528 414.76C364.468 416.26 363.608 416.65 362.338 416.65C357.698 416.65 353.048 416.59 348.408 416.69C346.158 416.74 345.678 415.53 345.798 413.68C345.808 413.52 345.798 413.36 345.798 413.2C345.798 408.74 345.798 404.25 345.798 399.77Z" fill="#A3C717"/>
<path d="M345.798 399.77C345.798 395.45 345.858 391.12 345.768 386.8C345.728 384.69 346.208 383.48 348.678 383.56C352.838 383.7 357.008 383.6 361.168 383.59C362.528 383.59 363.778 383.65 363.818 385.51C363.858 387.5 362.468 387.33 361.178 387.34C358.458 387.36 355.738 387.37 353.008 387.38C351.268 387.39 350.318 388.18 350.388 389.99C350.398 390.15 350.368 390.31 350.368 390.47C350.298 398.49 350.158 397.39 356.828 397.46C358.268 397.48 359.708 397.48 361.148 397.47C362.288 397.46 362.938 397.93 362.978 399.13C363.018 400.42 362.678 401.3 361.138 401.28C358.418 401.25 355.698 401.32 352.968 401.29C351.228 401.27 350.338 401.88 350.348 403.78C350.408 414.64 349.338 412.57 358.658 412.78C359.938 412.81 361.218 412.8 362.498 412.79C363.828 412.78 364.588 413.27 364.528 414.76C364.468 416.26 363.608 416.65 362.338 416.65C357.698 416.65 353.048 416.59 348.408 416.69C346.158 416.74 345.678 415.53 345.798 413.68C345.808 413.52 345.798 413.36 345.798 413.2C345.798 408.74 345.798 404.25 345.798 399.77Z" stroke="#A3C717" stroke-width="2.46" stroke-miterlimit="10"/>
<path d="M299.06 402.16C298.39 397.82 296.49 392.42 294.5 389.48C293.59 393.96 291.32 397.87 290.8 402.31C292.96 403.01 294.89 402.62 296.79 402.7C297.59 402.73 298.4 402.73 299.06 402.16ZM308.39 416.1C304.39 416.84 304.45 416.81 303.14 413.6C302.18 411.27 302.38 408.05 300.17 406.77C297.88 405.44 294.85 406.49 292.15 406.28C290.04 406.11 288.9 406.94 288.4 409.04C287.92 411.05 287.1 412.99 286.48 414.97C285.91 416.8 284.48 416.79 283 416.68C282.02 416.6 281.58 416.06 281.81 415.08C281.96 414.46 282.18 413.86 282.38 413.25C285.36 404.46 288.38 395.69 291.31 386.89C291.97 384.91 292.63 383.49 295.19 383.54C297.47 383.58 298.2 384.74 298.81 386.56C301.91 395.81 305.08 405.04 308.22 414.27C308.42 414.86 308.67 415.45 308.39 416.1Z" fill="#A3C717"/>
<path d="M299.06 402.16C298.39 397.82 296.49 392.42 294.5 389.48C293.59 393.96 291.32 397.87 290.8 402.31C292.96 403.01 294.89 402.62 296.79 402.7C297.59 402.73 298.4 402.73 299.06 402.16ZM308.39 416.1C304.39 416.84 304.45 416.81 303.14 413.6C302.18 411.27 302.38 408.05 300.17 406.77C297.88 405.44 294.85 406.49 292.15 406.28C290.04 406.11 288.9 406.94 288.4 409.04C287.92 411.05 287.1 412.99 286.48 414.97C285.91 416.8 284.48 416.79 283 416.68C282.02 416.6 281.58 416.06 281.81 415.08C281.96 414.46 282.18 413.86 282.38 413.25C285.36 404.46 288.38 395.69 291.31 386.89C291.97 384.91 292.63 383.49 295.19 383.54C297.47 383.58 298.2 384.74 298.81 386.56C301.91 395.81 305.08 405.04 308.22 414.27C308.42 414.86 308.67 415.45 308.39 416.1Z" stroke="#A3C717" stroke-width="2.46" stroke-miterlimit="10"/>
<path d="M244.748 417.091C241.468 417.061 239.268 416.701 237.148 415.911C235.678 415.371 235.208 414.471 235.708 412.931C236.248 411.281 237.258 411.681 238.348 412.131C240.618 413.081 242.978 413.411 245.398 413.111C248.208 412.761 250.068 411.151 250.478 408.771C250.918 406.271 249.898 404.371 247.778 403.111C246.548 402.381 245.208 401.831 243.888 401.271C242.108 400.521 240.368 399.721 238.888 398.451C234.608 394.761 234.788 388.451 239.388 385.211C243.398 382.391 247.818 382.671 252.278 384.011C253.368 384.341 253.778 385.041 253.398 386.201C252.998 387.421 252.438 388.211 250.988 387.671C248.998 386.921 246.938 386.701 244.848 387.041C242.608 387.411 240.948 388.561 240.508 390.901C240.108 393.031 241.058 394.701 242.838 395.761C244.478 396.731 246.258 397.481 247.998 398.291C253.978 401.081 256.158 404.721 254.898 409.851C253.828 414.291 249.498 417.091 244.748 417.091Z" fill="#A3C717"/>
<path d="M244.748 417.091C241.468 417.061 239.268 416.701 237.148 415.911C235.678 415.371 235.208 414.471 235.708 412.931C236.248 411.281 237.258 411.681 238.348 412.131C240.618 413.081 242.978 413.411 245.398 413.111C248.208 412.761 250.068 411.151 250.478 408.771C250.918 406.271 249.898 404.371 247.778 403.111C246.548 402.381 245.208 401.831 243.888 401.271C242.108 400.521 240.368 399.721 238.888 398.451C234.608 394.761 234.788 388.451 239.388 385.211C243.398 382.391 247.818 382.671 252.278 384.011C253.368 384.341 253.778 385.041 253.398 386.201C252.998 387.421 252.438 388.211 250.988 387.671C248.998 386.921 246.938 386.701 244.848 387.041C242.608 387.411 240.948 388.561 240.508 390.901C240.108 393.031 241.058 394.701 242.838 395.761C244.478 396.731 246.258 397.481 247.998 398.291C253.978 401.081 256.158 404.721 254.898 409.851C253.828 414.291 249.498 417.091 244.748 417.091Z" stroke="#A3C717" stroke-width="2.46" stroke-miterlimit="10"/>
<path d="M184.399 397.9C185.839 397.9 187.279 397.91 188.659 397.36C191.759 396.13 193.289 393.19 192.489 390.01C191.649 386.69 187.739 384.94 182.939 385.61C179.249 386.13 180.959 388.96 180.629 390.88C180.439 391.97 180.569 393.11 180.599 394.23C180.689 397.89 180.699 397.89 184.399 397.9ZM180.589 407.32C180.589 407.8 180.589 408.28 180.589 408.76C180.599 414.85 181.469 415.53 187.609 414.29C188.879 414.03 190.099 413.71 191.169 412.95C193.799 411.12 194.729 407.91 193.519 404.88C192.089 401.32 187.209 399.14 182.439 400.29C179.189 401.07 181.099 403.96 180.619 405.88C180.489 406.33 180.589 406.84 180.589 407.32ZM190.539 398.7C194.079 400.89 196.389 402.96 196.609 406.59C196.879 410.97 194.729 414.44 190.569 415.89C187.169 417.08 183.639 416.93 180.109 416.74C178.459 416.65 177.989 415.67 177.989 414.19C178.009 404.9 178.029 395.62 177.969 386.33C177.959 384.46 178.869 383.77 180.509 383.58C183.219 383.27 185.939 383.08 188.629 383.7C195.619 385.32 197.579 391.83 192.709 397.17C192.299 397.63 191.679 397.91 190.539 398.7Z" fill="#A3C717"/>
<path d="M184.399 397.9C185.839 397.9 187.279 397.91 188.659 397.36C191.759 396.13 193.289 393.19 192.489 390.01C191.649 386.69 187.739 384.94 182.939 385.61C179.249 386.13 180.959 388.96 180.629 390.88C180.439 391.97 180.569 393.11 180.599 394.23C180.689 397.89 180.699 397.89 184.399 397.9ZM180.589 407.32C180.589 407.8 180.589 408.28 180.589 408.76C180.599 414.85 181.469 415.53 187.609 414.29C188.879 414.03 190.099 413.71 191.169 412.95C193.799 411.12 194.729 407.91 193.519 404.88C192.089 401.32 187.209 399.14 182.439 400.29C179.189 401.07 181.099 403.96 180.619 405.88C180.489 406.33 180.589 406.84 180.589 407.32ZM190.539 398.7C194.079 400.89 196.389 402.96 196.609 406.59C196.879 410.97 194.729 414.44 190.569 415.89C187.169 417.08 183.639 416.93 180.109 416.74C178.459 416.65 177.989 415.67 177.989 414.19C178.009 404.9 178.029 395.62 177.969 386.33C177.959 384.46 178.869 383.77 180.509 383.58C183.219 383.27 185.939 383.08 188.629 383.7C195.619 385.32 197.579 391.83 192.709 397.17C192.299 397.63 191.679 397.91 190.539 398.7Z" stroke="#A3C717" stroke-width="2.46" stroke-miterlimit="10"/>
<path d="M409.17 406.061C409.12 402.321 407.73 399.891 404.95 398.651C402.09 397.381 398.44 398.121 396.15 400.431C393.78 402.831 393.51 406.921 395.47 410.691C397 413.641 399.9 415.311 402.86 414.891C405.23 414.551 406.93 413.231 408.1 411.151C408.99 409.551 409.14 407.821 409.17 406.061ZM395.42 397.531C396.99 397.821 398.03 396.561 399.34 396.191C405.57 394.411 411.06 398.041 411.77 404.501C412.53 411.351 408.41 416.891 402.39 417.101C398.74 417.231 395.86 415.781 393.84 412.741C387.18 402.751 393.94 386.691 405.69 384.561C406.31 384.451 406.95 384.391 407.58 384.391C408.07 384.391 408.5 384.601 408.65 385.131C408.88 385.891 408.48 386.401 407.83 386.581C406.75 386.871 405.62 386.931 404.54 387.231C399.45 388.611 396.2 392.261 395.42 397.531Z" fill="#A3C717"/>
<path d="M409.17 406.061C409.12 402.321 407.73 399.891 404.95 398.651C402.09 397.381 398.44 398.121 396.15 400.431C393.78 402.831 393.51 406.921 395.47 410.691C397 413.641 399.9 415.311 402.86 414.891C405.23 414.551 406.93 413.231 408.1 411.151C408.99 409.551 409.14 407.821 409.17 406.061ZM395.42 397.531C396.99 397.821 398.03 396.561 399.34 396.191C405.57 394.411 411.06 398.041 411.77 404.501C412.53 411.351 408.41 416.891 402.39 417.101C398.74 417.231 395.86 415.781 393.84 412.741C387.18 402.751 393.94 386.691 405.69 384.561C406.31 384.451 406.95 384.391 407.58 384.391C408.07 384.391 408.5 384.601 408.65 385.131C408.88 385.891 408.48 386.401 407.83 386.581C406.75 386.871 405.62 386.931 404.54 387.231C399.45 388.611 396.2 392.261 395.42 397.531Z" stroke="#A3C717" stroke-width="2.46" stroke-miterlimit="10"/>
<path d="M432.929 400.68C433.019 397.11 432.549 393.64 431.059 390.37C429.979 387.99 428.159 386.45 425.519 386.4C423.039 386.36 421.199 387.86 420.229 389.99C416.999 397.06 416.859 404.26 420.139 411.35C421.109 413.45 422.879 414.95 425.419 414.93C428.149 414.91 429.869 413.29 430.959 410.98C432.489 407.72 432.999 404.25 432.929 400.68ZM415.289 400.53C415.379 396.82 415.739 393.16 417.539 389.81C419.429 386.29 422.169 384.05 426.359 384.3C430.399 384.54 432.779 387.09 433.989 390.66C436.289 397.41 436.209 404.24 433.719 410.92C432.319 414.65 429.569 416.99 425.369 417.09C421.659 417.18 418.809 415.03 417.079 410.9C415.679 407.58 415.349 404.08 415.289 400.53Z" fill="#A3C717"/>
<path d="M432.929 400.68C433.019 397.11 432.549 393.64 431.059 390.37C429.979 387.99 428.159 386.45 425.519 386.4C423.039 386.36 421.199 387.86 420.229 389.99C416.999 397.06 416.859 404.26 420.139 411.35C421.109 413.45 422.879 414.95 425.419 414.93C428.149 414.91 429.869 413.29 430.959 410.98C432.489 407.72 432.999 404.25 432.929 400.68ZM415.289 400.53C415.379 396.82 415.739 393.16 417.539 389.81C419.429 386.29 422.169 384.05 426.359 384.3C430.399 384.54 432.779 387.09 433.989 390.66C436.289 397.41 436.209 404.24 433.719 410.92C432.319 414.65 429.569 416.99 425.369 417.09C421.659 417.18 418.809 415.03 417.079 410.9C415.679 407.58 415.349 404.08 415.289 400.53Z" stroke="#A3C717" stroke-width="2.46" stroke-miterlimit="10"/>
<path d="M265.31 398.29C265.31 402.13 265.39 405.98 265.28 409.83C265.21 412.17 266.24 412.91 268.44 412.83C271.32 412.72 274.21 412.84 277.09 412.81C278.44 412.79 279.21 413.23 279.19 414.72C279.17 416.13 278.56 416.71 277.15 416.7C272.5 416.66 267.86 416.65 263.21 416.7C261.28 416.72 260.76 415.75 260.77 414.01C260.81 404.72 260.8 395.42 260.78 386.13C260.78 384.66 261.13 383.67 262.87 383.61C264.81 383.55 265.34 384.53 265.32 386.27C265.26 390.28 265.3 394.28 265.3 398.29H265.31V398.29Z" fill="#A3C717"/>
<path d="M265.31 398.29C265.31 402.13 265.39 405.98 265.28 409.83C265.21 412.17 266.24 412.91 268.44 412.83C271.32 412.72 274.21 412.84 277.09 412.81C278.44 412.79 279.21 413.23 279.19 414.72C279.17 416.13 278.56 416.71 277.15 416.7C272.5 416.66 267.86 416.65 263.21 416.7C261.28 416.72 260.76 415.75 260.77 414.01C260.81 404.72 260.8 395.42 260.78 386.13C260.78 384.66 261.13 383.67 262.87 383.61C264.81 383.55 265.34 384.53 265.32 386.27C265.26 390.28 265.3 394.28 265.3 398.29H265.31V398.29Z" stroke="#A3C717" stroke-width="2.46" stroke-miterlimit="10"/>
<path d="M380.847 399.171C381.687 399.761 382.487 400.24 383.197 400.84C388.377 405.21 387.467 413.021 381.367 415.921C377.537 417.741 373.607 417.491 369.767 415.761C369.017 415.421 368.357 414.831 368.877 413.911C369.227 413.281 369.907 413.321 370.557 413.571C372.197 414.211 373.857 414.75 375.657 414.8C380.107 414.92 383.147 412.76 383.757 408.99C384.407 404.98 381.977 401.811 377.567 400.691C375.977 400.291 374.057 401.011 372.777 399.641C373.007 398.321 373.817 398.321 374.607 398.201C375.867 398.011 377.177 397.93 378.357 397.5C381.677 396.3 383.267 393.351 382.377 390.351C381.527 387.471 378.997 386.03 375.517 386.65C374.127 386.9 372.817 387.571 371.467 388.041C370.997 388.201 370.467 388.221 370.167 387.791C369.767 387.191 369.927 386.611 370.497 386.141C373.407 383.691 379.697 383.601 382.687 385.981C385.577 388.271 386.177 392.801 383.907 395.911C383.067 397.071 381.957 398.011 380.847 399.171Z" fill="#A3C717"/>
<path d="M380.847 399.171C381.687 399.761 382.487 400.24 383.197 400.84C388.377 405.21 387.467 413.021 381.367 415.921C377.537 417.741 373.607 417.491 369.767 415.761C369.017 415.421 368.357 414.831 368.877 413.911C369.227 413.281 369.907 413.321 370.557 413.571C372.197 414.211 373.857 414.75 375.657 414.8C380.107 414.92 383.147 412.76 383.757 408.99C384.407 404.98 381.977 401.811 377.567 400.691C375.977 400.291 374.057 401.011 372.777 399.641C373.007 398.321 373.817 398.321 374.607 398.201C375.867 398.011 377.177 397.93 378.357 397.5C381.677 396.3 383.267 393.351 382.377 390.351C381.527 387.471 378.997 386.03 375.517 386.65C374.127 386.9 372.817 387.571 371.467 388.041C370.997 388.201 370.467 388.221 370.167 387.791C369.767 387.191 369.927 386.611 370.497 386.141C373.407 383.691 379.697 383.601 382.687 385.981C385.577 388.271 386.177 392.801 383.907 395.911C383.067 397.071 381.957 398.011 380.847 399.171Z" stroke="#A3C717" stroke-width="2.46" stroke-miterlimit="10"/>
<path d="M211.029 399.2C213.929 395.49 215.539 391.27 218.069 387.63C219.129 386.11 219.479 382.69 222.049 384.14C223.349 384.87 220.959 387.32 220.099 388.9C218.429 391.99 216.679 395.07 214.689 397.96C212.589 401.01 211.729 404.23 212.009 407.89C212.189 410.28 212.049 412.69 211.979 415.09C211.959 415.97 211.509 416.67 210.499 416.51C209.789 416.4 209.539 415.75 209.529 415.07C209.509 412.19 209.379 409.3 209.539 406.43C209.699 403.59 208.979 401.13 207.519 398.71C205.049 394.6 202.789 390.36 200.479 386.16C200.069 385.42 199.079 384.44 200.409 383.79C201.439 383.28 202.229 384.17 202.729 385.01C203.709 386.66 204.539 388.4 205.529 390.04C207.339 393.01 208.529 396.36 211.029 399.2Z" fill="#A3C717"/>
<path d="M211.029 399.2C213.929 395.49 215.539 391.27 218.069 387.63C219.129 386.11 219.479 382.69 222.049 384.14C223.349 384.87 220.959 387.32 220.099 388.9C218.429 391.99 216.679 395.07 214.689 397.96C212.589 401.01 211.729 404.23 212.009 407.89C212.189 410.28 212.049 412.69 211.979 415.09C211.959 415.97 211.509 416.67 210.499 416.51C209.789 416.4 209.539 415.75 209.529 415.07C209.509 412.19 209.379 409.3 209.539 406.43C209.699 403.59 208.979 401.13 207.519 398.71C205.049 394.6 202.789 390.36 200.479 386.16C200.069 385.42 199.079 384.44 200.409 383.79C201.439 383.28 202.229 384.17 202.729 385.01C203.709 386.66 204.539 388.4 205.529 390.04C207.339 393.01 208.529 396.36 211.029 399.2Z" stroke="#A3C717" stroke-width="2.46" stroke-miterlimit="10"/>
<path d="M294.868 134.07C294.778 123.02 303.618 115.9 313.498 118.1C315.948 118.65 318.268 119.51 320.298 120.95C337.148 132.9 351.048 147.4 359.408 166.64C360.598 169.39 361.588 172.2 362.478 175.06C363.108 177.09 363.268 179.15 363.268 181.23C363.268 184.33 362.828 184.61 359.838 183.38C349.708 179.22 339.388 175.68 328.608 173.65C322.978 172.59 317.288 171.87 311.558 171.76C306.228 171.66 303.578 169.3 302.428 164.57C300.218 155.48 297.058 146.63 295.338 137.41C295.078 136.01 294.938 134.58 294.868 134.07Z" fill="#A3C717"/>
<path d="M329.78 207.641C343.11 207.571 355.51 211.021 366.85 218.081C370.77 220.521 374.17 223.511 376.48 227.601C380.15 234.111 378.59 240.141 372.23 244.031C368.93 246.051 365.36 247.231 361.48 247.101C346.53 246.591 331.94 244.311 318.05 238.441C314.35 236.871 311.28 234.581 308.79 231.471C303.29 224.601 304.5 216.501 311.78 211.491C315.2 209.141 319.08 208.071 323.14 207.691C325.34 207.471 327.57 207.641 329.78 207.641Z" fill="#A3C717"/>
</svg>
