<svg width="30" height="30" viewBox="0 0 30 30" fill="none" xmlns="http://www.w3.org/2000/svg">
<path d="M14.5625 2.25391H15.4414V3.13281H14.5625V2.25391Z" fill="#603A8B"/>
<path d="M29.1211 25.1055V5.76959H19.7377L18.8587 2.25396H17.153C16.9489 1.25225 16.0611 0.496094 15 0.496094C13.9389 0.496094 13.0511 1.25225 12.847 2.25396H11.1412L10.2623 5.76959H0.878906V9.28516H1.75781V6.6485H14.5605V23.3478H13.4326V19.0761L9.8516 17.8823L10.7959 16.938V12.801C10.7959 12.074 10.2045 11.4826 9.47754 11.4826H5.52246V16.938L6.46676 17.8823L2.88574 19.0761V23.3478H1.75781V10.1641H0.878906V25.1055H0V28.1818C0 28.9087 0.591445 29.5001 1.31836 29.5001H24.7266V28.6212H1.31836C1.07602 28.6212 0.878906 28.4241 0.878906 28.1818V25.9844H11.5807L12.0201 27.7422H17.9798L18.4193 25.9844H29.1211V28.1818C29.1211 28.4241 28.924 28.6212 28.6816 28.6212H25.6055V29.5001H28.6816C29.4086 29.5001 30 28.9087 30 28.1818V25.1055H29.1211ZM15 1.375C15.7269 1.375 16.3184 1.96645 16.3184 2.69342C16.3184 3.42033 15.7269 4.01178 15 4.01178C14.273 4.01178 13.6816 3.42033 13.6816 2.69342C13.6816 1.96645 14.273 1.375 15 1.375ZM11.8275 3.13287H12.847C13.0511 4.13459 13.9389 4.89068 15 4.89068C16.0611 4.89068 16.9489 4.13459 17.153 3.13287H18.1725L18.8316 5.76959H11.1683L11.8275 3.13287ZM15.4395 6.6485H28.2422V23.3478H27.1142V19.0761L23.4371 17.8503L24.4775 16.463V12.8009C24.4775 12.228 24.1102 11.7392 23.5986 11.5578V11.0431C23.5986 10.3162 23.0072 9.72479 22.2803 9.72479H21.4014C20.6745 9.72479 20.083 10.3162 20.083 11.0431V11.5578C19.5715 11.7392 19.2041 12.228 19.2041 12.8009V16.463L20.2446 17.8503L16.5674 19.0761V23.3478H15.4395V6.6485ZM24.0381 21.7205V23.3477H19.6436V21.7205H18.7646V23.3477H17.4463V19.7094L18.9018 19.2242L21.8408 21.4851L24.7799 19.2242L26.2353 19.7094V23.3477H24.917V21.7205H24.0381ZM23.1592 12.3614C23.4015 12.3614 23.5986 12.5586 23.5986 12.8009V13.2404H21.6578L20.083 14.211V12.8009C20.083 12.5586 20.2801 12.3614 20.5225 12.3614H23.1592ZM20.9619 11.4825V11.0431C20.9619 10.8008 21.159 10.6037 21.4014 10.6037H22.2803C22.5226 10.6037 22.7197 10.8008 22.7197 11.0431V11.4825H20.9619ZM20.083 15.2435L21.9069 14.1192H23.5986V16.17L22.5 17.6348H21.1817L20.083 16.17V15.2435ZM21.0333 18.5138H22.6484L23.7742 18.8891L21.8408 20.3764L19.9074 18.8891L21.0333 18.5138ZM9.47754 12.3614C9.71988 12.3614 9.91699 12.5586 9.91699 12.8009V13.2404H6.40137V12.3614H9.47754ZM6.40137 14.1193H9.91699V16.574L8.85604 17.6349H7.46227L6.40137 16.574V14.1193ZM3.76465 19.7095L7.35158 18.5138H8.96672L12.5537 19.7095V23.3478H11.2353V21.7206H10.3564V23.3478H5.96186V21.7206H5.08295V23.3478H3.76459V19.7095H3.76465ZM17.2937 26.8633H12.7064L12.4867 25.9844H14.5605V25.1055H1.75781V24.2267H28.2422V25.1055H15.4395V25.9844H17.5133L17.2937 26.8633Z" fill="#603A8B"/>
<path d="M26.4844 9.28516H27.3633V11.9219H26.4844V9.28516Z" fill="#603A8B"/>
<path d="M26.4844 7.52734H27.3633V8.40625H26.4844V7.52734Z" fill="#603A8B"/>
<path d="M1.75781 26.8633H2.63672V27.7422H1.75781V26.8633Z" fill="#603A8B"/>
</svg>
